<svg width="24" height="24" viewBox="0 0 24 24" fill="none" xmlns="http://www.w3.org/2000/svg">
<g clip-path="url(#clip0_4518_338)">
<path d="M11 11H0V3C0 2.20435 0.31607 1.44129 0.87868 0.87868C1.44129 0.31607 2.20435 0 3 0L11 0V11ZM2 9H9V2H3C2.73478 2 2.48043 2.10536 2.29289 2.29289C2.10536 2.48043 2 2.73478 2 3V9Z" fill="white"/>
<path d="M23.9997 11H12.9998V0H20.9997C21.7954 0 22.5585 0.31607 23.1211 0.87868C23.6837 1.44129 23.9997 2.20435 23.9997 3V11ZM14.9998 9H21.9997V3C21.9997 2.73478 21.8944 2.48043 21.7069 2.29289C21.5193 2.10536 21.265 2 20.9997 2H14.9998V9Z" fill="white"/>
<path d="M11 24H3C2.20435 24 1.44129 23.6839 0.87868 23.1213C0.31607 22.5587 0 21.7956 0 21L0 13H11V24ZM2 15V21C2 21.2652 2.10536 21.5195 2.29289 21.7071C2.48043 21.8946 2.73478 22 3 22H9V15H2Z" fill="white"/>
<path d="M20.9997 24H12.9998V13H23.9997V21C23.9997 21.7956 23.6837 22.5587 23.1211 23.1213C22.5585 23.6839 21.7954 24 20.9997 24ZM14.9998 22H20.9997C21.265 22 21.5193 21.8946 21.7069 21.7071C21.8944 21.5195 21.9997 21.2652 21.9997 21V15H14.9998V22Z" fill="white"/>
</g>
<defs>
<clipPath id="clip0_4518_338">
<rect width="24" height="24" fill="white"/>
</clipPath>
</defs>
</svg>
