<svg width="48" height="48" viewBox="0 0 48 48" fill="none" xmlns="http://www.w3.org/2000/svg">
<path d="M0 24C0 10.7452 10.7452 0 24 0C37.2548 0 48 10.7452 48 24C48 37.2548 37.2548 48 24 48C10.7452 48 0 37.2548 0 24Z" fill="#F43C1E"/>
<path d="M24 0.5C36.9787 0.5 47.5 11.0213 47.5 24C47.5 36.9787 36.9787 47.5 24 47.5C11.0213 47.5 0.5 36.9787 0.5 24C0.5 11.0213 11.0213 0.5 24 0.5Z" stroke="white" stroke-opacity="0.5"/>
<path d="M33 35.9L29.337 33.389L26.673 35.214L24.007 33.388L21.341 35.212L18.67 33.386L15 35.9V15C15 14.2044 15.3161 13.4413 15.8787 12.8787C16.4413 12.3161 17.2044 12 18 12H30C30.7956 12 31.5587 12.3161 32.1213 12.8787C32.6839 13.4413 33 14.2044 33 15V35.9ZM18.67 30.962L21.34 32.788L24.007 30.962L26.673 32.788L29.338 30.961L31 32.1V15C31 14.7348 30.8946 14.4804 30.7071 14.2929C30.5196 14.1054 30.2652 14 30 14H18C17.7348 14 17.4804 14.1054 17.2929 14.2929C17.1054 14.4804 17 14.7348 17 15V32.1L18.67 30.962Z" fill="white"/>
<path d="M29.0002 20.0006H19.0002V22.0006H29.0002V20.0006Z" fill="white"/>
<path d="M27.0002 24H19.0002V26H27.0002V24Z" fill="white"/>
</svg>
