<svg width="283" height="183" viewBox="0 0 283 183" fill="none" xmlns="http://www.w3.org/2000/svg">
<g clip-path="url(#clip0_4517_14)">
<path d="M178.526 36.0097C178.762 41.5587 177.111 46.3993 176.403 51.7122C178.29 55.018 177.229 55.2542 176.639 58.678C177.936 61.1574 176.403 64.2271 176.993 67.4148C175.696 72.0193 174.399 77.6864 172.63 81.4645C170.272 87.4858 163.668 85.2426 166.616 79.5755C164.14 78.0406 166.616 74.2626 164.965 71.7832C158.48 66.7064 155.886 54.7819 147.042 53.8374C144.802 56.5529 145.391 62.9284 146.806 65.998C144.92 71.5471 143.033 78.9851 136.076 80.52C135.25 79.6935 133.6 79.3393 132.774 78.749C133.364 74.2626 134.071 69.4219 135.133 65.0535C133.6 59.8587 135.133 55.8445 133.364 50.6497C131.359 47.8161 135.84 44.7464 133.6 41.0864C135.84 36.3638 133.128 32.1135 134.897 27.1548C136.194 26.0922 136.783 25.1477 136.901 23.3767C137.491 22.5503 140.439 23.3768 140.085 21.8419C135.958 18.8903 138.788 16.2929 140.91 20.6613C145.155 21.1335 146.217 25.3838 148.929 27.509C150.344 29.28 149.4 32.4677 152.112 33.4122C156.004 33.4122 153.292 33.6484 153.527 36.3638C155.296 38.2529 157.183 40.1419 159.659 41.4406C161.546 44.2742 163.315 53.129 167.677 51.358C164.376 48.2884 169.092 46.7535 168.031 43.2116C168.975 41.4406 168.031 40.1419 167.442 38.6071C169.092 35.6555 168.621 32.2316 168.385 29.0438C171.687 29.398 171.805 27.9813 174.163 25.9742C179.941 26.5645 174.281 33.5303 178.408 36.1277L178.526 36.0097ZM88.6733 15.9387C90.56 13.1051 86.315 12.5148 87.1404 9.5632C83.485 5.54901 77.2354 2.00707 72.0471 0.118042C69.2171 0.708365 70.1604 4.72256 66.9767 5.54901C64.3825 10.0355 60.6092 7.31998 62.26 10.5077C62.8496 14.9942 59.3121 15.7026 58.9583 19.3626C58.9583 25.3838 58.6046 29.5161 57.8971 35.4193C56.8358 40.8503 58.1329 46.7535 57.1896 52.3026C55.4208 54.3097 56.7179 55.4903 58.2508 57.0251C55.8925 59.8587 59.0763 63.0464 56.2463 65.5258C60.9629 69.54 58.9583 69.4219 57.1896 74.7348C54.7133 78.9851 59.7838 82.0548 60.3733 85.9509C60.3733 87.0135 57.4254 89.9651 60.3733 90.3193C73.58 92.5626 75.4667 79.4574 83.0133 74.8529C87.9658 68.2413 83.6029 70.7206 85.0179 63.8729C83.6029 60.5671 75.8204 50.0593 72.0471 51.7122C70.0425 50.0593 66.1513 48.0522 69.335 45.3368C67.5663 42.0309 70.2783 35.7735 73.9338 35.7735C75.5846 32.94 77.3533 33.2942 79.0042 34.7109C84.4283 30.3426 92.3288 23.7309 88.7913 15.9387H88.6733ZM70.1604 63.6368C75.4667 63.2826 74.8771 68.8316 77.9429 70.2484C79.24 72.8458 76.41 76.2697 76.6458 78.8671C75.2308 79.1032 73.3442 79.6935 72.0471 80.0477C67.5663 76.978 62.0242 79.6935 63.9108 71.7832C67.0946 68.9497 64.7363 60.9213 70.1604 63.7548V63.6368ZM80.4192 23.1406C79.24 27.3909 73.2262 28.9258 69.9246 30.9329C67.5663 27.0368 70.1604 19.7167 71.6933 15.8206C79.5938 10.3897 79.9475 17.0013 80.4192 23.1406ZM49.9967 32.7038C51.4117 35.1832 49.6429 39.3155 47.5204 41.2045C48.3458 45.809 44.4546 49.9413 46.4592 54.7819C47.6383 59.5045 44.3367 64.5813 47.6383 68.3593C44.6904 71.429 46.1054 75.6793 44.1008 79.2213C43.2754 80.2838 35.9646 89.9651 35.7288 84.6522C40.2096 75.9155 33.96 83.3535 37.2617 72.4916C38.9125 69.8942 35.9646 65.7619 36.3183 62.8103C38.9125 59.0322 33.4883 57.9697 30.8942 60.0948C25.1163 64.6993 13.7963 66.8245 12.6171 75.4432C10.1408 80.52 4.48083 89.1387 0.117918 81.7006C1.415 79.5755 0.825418 74.6168 0.471668 72.0193C-0.589582 70.1303 0.235834 69.658 1.53292 68.7135C-1.76875 64.109 4.12708 58.56 0.707501 54.0735C4.12708 52.0664 1.17917 50.4135 0.707501 47.1077C4.00917 43.4477 2.00458 37.3084 0.707501 32.7038C2.94792 30.6968 2.35833 27.7451 4.12708 25.3838C7.66458 21.7238 11.6738 17.9458 13.0888 25.3838C14.3858 26.9187 16.5083 29.1619 13.6783 29.9884C11.9096 31.7593 13.2067 33.4122 11.4379 35.1832C11.32 36.2458 13.5604 37.4264 12.3813 38.7251C10.0229 39.4335 10.7304 40.4961 11.5558 42.3851C10.4946 47.2258 12.1454 52.8929 10.1408 57.3793C11.5558 63.6367 3.5375 73.0819 13.2067 64.3451C18.395 62.1019 21.6967 54.3097 26.885 51.8303C30.8942 52.5387 36.3183 50.1774 36.3183 45.5729C37.7333 44.1561 37.8512 42.7393 37.1438 40.9684C38.205 35.4193 40.6813 30.9329 43.865 26.4464C46.5771 27.6271 51.5296 28.5716 49.8787 32.4677L49.9967 32.7038ZM128.529 69.3038C128.765 71.7832 127.586 75.6793 127.586 78.0406C125.11 78.1587 123.695 82.1729 121.218 80.2838C118.035 75.4432 113.672 71.429 110.016 66.9426C109.309 64.3451 111.431 59.7406 106.95 60.0948C100.937 60.8032 99.5217 67.769 99.1679 72.9638C103.531 74.9709 115.205 73.6722 108.365 82.5271C102.234 80.52 99.6396 79.1032 93.7438 82.1729C91.3854 77.9226 96.8096 78.749 90.4421 71.429C92.4467 67.4148 91.7392 63.9909 95.3946 61.7477C96.3379 57.8516 97.1633 54.5458 98.9321 50.2955C100.937 49.1148 101.526 47.698 100.229 45.5729C102.116 44.038 103.649 42.6213 103.531 39.9058C101.408 37.8987 104.946 34.5929 101.055 34.1206C100.819 33.1761 101.055 32.2316 101.055 31.2871C99.05 26.4464 97.2813 21.2516 99.9933 14.1677C105.653 13.2232 108.955 10.2716 112.257 17.2374C112.493 20.189 110.488 20.7793 113.2 22.4322C113.79 24.4393 113.79 25.738 115.912 25.9742C117.563 28.0993 113.318 30.9329 115.44 33.5303C119.096 35.5374 116.855 40.0238 118.86 43.4477C121.218 46.2813 119.45 50.2955 119.568 53.4832C122.987 56.5529 121.336 62.1019 125.699 64.4632C125.228 66.9426 127.232 67.6509 128.647 68.9497L128.529 69.3038ZM214.137 57.8516C211.071 57.6155 213.429 53.3651 210.953 53.2471C209.538 53.9555 208.359 54.6638 207.298 53.129C194.445 48.0522 203.17 48.4064 197.275 41.5587C196.803 39.1974 198.69 39.6697 199.869 38.2529C200.812 33.8845 202.699 28.9258 199.751 25.0297C200.222 23.2587 201.166 21.2516 199.161 19.4806C200.458 17.4735 199.633 15.4664 198.807 13.4593C199.161 11.098 197.864 10.0355 195.977 8.85482C195.152 7.43804 195.27 5.19482 193.265 5.66707C191.85 5.31288 191.261 3.30578 190.2 2.36127C187.723 0.708365 181.945 0.472235 181.12 3.65998C178.29 7.43804 175.342 10.0355 179.233 14.1677C179.469 15.9387 177.818 16.1748 177.818 17.2374C178.644 19.5987 178.054 22.3142 181.474 22.5503C183.478 22.9045 187.134 22.1961 186.78 19.8348C190.082 20.189 193.03 22.9045 193.501 26.3284C190.789 32.7038 193.501 40.26 190.2 46.6355C190.671 50.0593 191.497 53.0109 189.61 56.1987C188.667 58.7961 192.44 61.2755 188.785 62.338C187.252 65.6438 191.143 63.8729 188.785 69.1858C193.383 71.9013 189.492 77.2142 190.789 80.9922C189.374 87.2496 199.751 80.9922 203.17 81.5826C206.236 84.6522 206.118 80.1658 210.363 81.3464C212.486 80.638 211.66 78.6309 212.604 77.2142C214.608 75.4432 216.141 72.8458 214.137 70.6026C218.028 69.8942 213.783 61.0393 214.137 58.0877V57.8516ZM209.656 70.0122C211.189 74.4987 204.703 73.6722 202.345 74.3806C201.166 72.9638 195.977 73.318 198.218 71.9013C197.275 65.88 197.982 70.9567 200.34 65.4077C204.114 64.2271 212.014 63.7548 209.656 69.8942V70.0122Z" fill="#E1E1E1"/>
<path d="M233.829 155.137C235.597 150.06 232.06 145.337 227.697 142.622C224.867 142.622 221.212 142.622 218.735 140.615C216.849 138.136 215.198 136.128 214.49 133.059C216.731 129.635 214.137 125.975 217.202 122.787C220.622 120.19 223.806 119.009 227.225 116.648C228.405 115.585 227.343 114.641 227.697 113.46C231.117 111.689 229.584 107.911 233.003 105.904C236.777 104.841 235.008 103.779 233.711 101.654C235.48 98.5839 235.362 95.042 236.305 91.382C232.296 89.2568 231.588 83.2355 227.225 82.291C225.221 78.7491 219.207 78.8671 215.552 79.4574C212.486 81.5826 216.731 82.8813 213.547 85.2426C211.189 90.4374 214.844 89.3749 217.32 91.9723C221.33 92.9168 222.273 92.0904 224.042 96.1045C222.391 99.6465 225.221 104.959 221.683 107.085C221.683 109.092 221.447 109.918 219.207 109.328C212.25 113.106 219.679 102.598 218.028 100.237C214.372 95.2781 217.085 96.931 217.792 93.7433C214.019 92.6807 208.005 88.7845 208.359 95.5142C206.708 95.5142 204.35 97.0491 204.939 98.82C205.293 99.8826 207.651 100.945 204.585 101.654C203.76 100.591 204.232 99.6465 202.581 100.001C205.882 104.723 202.227 103.425 203.17 108.737C203.996 114.05 201.284 119.481 204.585 124.794C205.647 127.628 203.878 127.746 203.524 129.989C203.288 131.524 204.232 133.885 202.463 134.948C203.76 138.136 200.576 140.025 202.463 142.858C200.458 144.393 201.873 145.219 202.817 146.99C202.345 148.289 200.576 149.234 201.991 150.532C201.873 152.776 200.458 155.137 201.048 157.38C202.699 158.325 202.227 159.151 202.227 160.922C202.463 162.575 203.878 163.165 201.166 164.228C201.048 166.471 203.052 168.478 202.463 170.721C198.218 174.381 208.005 175.444 202.935 178.041C202.581 178.868 199.987 181.583 201.402 182.41C203.76 181.583 207.297 182.646 205.175 179.694C210.953 172.492 223.216 174.381 230.645 170.957C230.881 168.832 233.239 166.117 232.885 163.637C234.772 162.811 233.947 161.394 233.475 159.859C233.003 157.262 241.022 151.949 233.475 154.783L233.829 155.137ZM225.103 161.866C224.277 164.228 209.538 167.652 213.547 162.457C210.481 152.185 226.872 152.539 225.103 161.866Z" fill="#E1E1E1"/>
<path d="M57.3075 140.851C56.7179 144.865 57.8971 146.872 56.4821 150.296C58.2508 152.185 56.8358 154.192 55.6566 155.609C58.2508 157.97 56.2462 159.978 54.0058 161.749C53.2983 162.693 52.5908 165.999 50.7041 164.582C49.525 161.985 51.7654 158.443 49.7608 155.491C48.2279 151.949 50.7041 147.935 48.2279 145.219C51.5296 143.803 50.7041 142.15 48.9354 139.552C49.8787 137.191 48.5816 137.427 47.6383 135.066C50.8221 128.454 49.7608 128.927 44.5725 124.086C39.3841 125.503 45.8696 128.1 41.1529 130.343C41.2708 135.184 36.5541 137.545 35.0212 141.796C35.0212 145.81 35.0212 152.776 29.2433 151.831C24.2908 156.554 23.5833 142.268 24.8804 139.316C22.0504 137.191 24.4087 134.358 21.225 132.705C22.4041 129.399 19.1025 126.329 21.225 123.496C20.0458 120.19 18.1591 113.932 13.7962 113.46C12.0275 114.168 12.3812 115.703 12.6171 117.238C17.0979 118.537 13.0887 120.544 12.735 122.787C14.9754 127.038 10.1408 130.107 10.8483 134.003C10.1408 136.955 12.4991 139.907 13.6783 142.622C13.6783 144.629 13.4425 146.282 14.6216 147.935C10.7304 149.47 12.4991 152.894 12.1454 156.318C18.1591 163.992 -0.70752 170.131 1.17915 160.096C1.76873 158.207 2.71206 156.908 1.5329 155.137C2.9479 153.13 3.89123 151.595 1.06123 150.769C2.12248 147.699 1.06123 146.164 1.88665 143.212C-2.01389e-05 140.733 -0.825437 138.844 0.70748 136.01C-2.35835 125.03 4.59873 114.287 1.5329 104.133C11.32 98.4659 1.88665 89.8472 20.5175 100.237C24.1729 104.487 20.2816 110.154 26.4133 111.335C29.8329 114.523 27.2387 119.718 29.8329 123.141C32.4271 124.558 29.8329 126.565 30.8941 127.628C36.3183 126.211 35.1391 118.183 38.205 114.287C37.3796 111.453 37.4975 110.981 40.4454 110.154C41.3887 107.793 42.0962 103.779 44.4546 102.008C48.4637 99.0562 48.6996 97.7575 52.8266 100.827C53.5341 103.425 50.7041 103.661 52.7087 105.668C53.8879 109.8 55.185 113.46 53.4162 116.884C54.8312 117.474 55.4208 117.71 54.1237 119.363C53.0625 121.252 51.7654 119.363 51.0579 120.662C52.2371 122.315 53.8879 123.968 54.3596 125.857C57.3075 125.621 57.8971 125.385 56.9537 128.927C58.3687 131.288 57.4254 130.816 56.6 133.059C57.7791 136.365 60.1375 137.781 57.1896 140.851H57.3075Z" fill="#E1E1E1"/>
<path d="M278.165 141.441C274.274 141.323 271.326 136.837 268.26 134.948C265.548 135.302 262.718 132.586 264.723 130.107C265.077 127.864 266.02 127.392 268.142 127.864C266.727 123.614 267.789 118.773 268.378 114.523C262.247 116.53 260.832 106.14 254.818 107.439C254.228 104.369 253.639 104.723 251.162 106.494C249.865 105.55 250.573 104.015 248.686 103.779C243.97 104.015 241.375 107.911 237.72 109.092C241.14 109.328 238.427 111.335 237.012 112.397C233.711 122.787 243.616 116.057 241.14 120.072C235.244 119.481 241.14 126.801 244.677 125.266C245.738 123.377 248.097 121.252 250.573 121.843C252.46 123.141 251.045 125.739 252.224 127.864C250.337 129.753 251.87 132.823 248.568 133.059C250.455 134.121 250.691 136.837 248.568 137.427C247.389 138.017 248.332 138.608 249.394 138.135C249.747 137.899 249.983 136.719 250.927 137.545C251.752 138.254 250.573 139.08 250.573 139.67C251.752 141.323 250.455 142.386 249.983 143.803C252.224 146.164 249.747 150.06 248.568 152.303C251.045 155.491 246.092 159.505 250.573 161.63C251.162 163.519 254.346 168.714 249.512 166.471C252.931 168.95 246.092 176.034 254.346 172.02C255.761 176.27 258.591 171.548 260.714 170.603C262.129 171.194 261.185 173.909 262.954 173.673C264.723 172.492 267.435 169.068 270.383 169.895C271.798 167.061 274.038 164.346 277.104 163.401C278.165 161.512 279.462 161.512 281.113 161.04C282.41 157.97 282.292 154.074 282.292 150.65C285.24 146.046 277.93 146.046 278.165 141.441ZM271.326 156.554C268.732 156.554 265.666 160.922 263.78 157.262C259.535 160.332 259.77 155.727 261.067 152.303C261.893 149.115 265.077 151.831 267.081 149.824C268.85 153.602 272.859 151.831 271.208 156.554H271.326Z" fill="#E1E1E1"/>
<path d="M161.664 151.831C158.598 156.79 160.131 155.727 158.598 161.276C156.475 163.519 152.584 168.006 151.405 162.575C149.518 157.144 151.169 156.554 145.745 150.65C144.33 147.935 145.627 145.456 143.151 143.567C143.623 142.032 143.858 138.844 141.146 138.726C139.26 137.663 141.382 136.483 141.382 135.184C141.028 132.941 138.67 129.163 136.783 127.864C132.067 127.864 132.42 130.461 131.595 134.121C132.892 136.837 130.062 137.781 130.888 140.143C132.538 141.323 132.892 142.74 131.595 144.747C133.482 152.067 129.237 152.067 129.001 157.616C128.647 158.915 125.228 161.749 127.94 162.339C126.171 165.645 124.52 170.013 121.926 172.729C117.445 173.201 113.318 175.444 109.073 174.499C103.767 176.743 100.111 171.902 105.889 169.068C108.483 163.992 114.615 166.943 117.091 162.575C122.044 157.616 119.568 149.234 120.983 142.74C124.284 140.143 121.218 134.358 124.284 132.941C121.454 129.517 126.171 129.635 125.345 126.801C126.525 123.732 123.93 120.072 126.643 117.829C128.883 115.349 127.586 113.224 128.175 110.745C133.128 106.258 137.609 100.001 144.802 101.299C150.698 108.974 149.165 119.363 154.825 127.864C152.23 132.35 153.41 132.35 157.065 131.17C153.056 134.712 158.362 138.136 156.829 142.504C156.475 145.338 158.48 144.865 159.305 146.4C159.07 148.761 160.131 149.824 161.782 151.831H161.664Z" fill="#E1E1E1"/>
<path d="M101.762 142.504C102.352 136.246 95.1587 132.468 91.2675 136.837C86.5508 137.191 84.4283 143.212 80.3012 144.393C77.1175 147.463 84.7821 151.123 80.3012 155.373C80.4191 158.797 82.5416 164.936 77.2354 162.811C76.41 163.283 75.8204 165.999 73.6979 165.29C71.9291 162.693 68.6275 161.394 67.6841 158.915C71.8112 157.38 64.8541 152.185 68.7454 144.511C69.6887 141.559 65.7975 139.906 68.3916 137.309C68.6275 135.774 69.0991 127.746 67.92 126.801L69.5708 126.329C69.2171 123.85 68.7454 121.134 67.4483 118.655C69.8066 114.759 70.0425 117.12 67.6841 112.515C71.4575 110.863 73.58 103.07 78.7683 105.786C72.8725 109.682 80.4191 108.619 81.2446 114.523C80.655 120.072 79.1221 124.912 81.8341 130.343C83.2491 133.767 79.8296 130.815 79.9475 133.059C85.6075 134.593 86.0791 127.037 91.0316 125.503C96.8095 125.739 97.1633 118.301 101.172 115.585C100.583 113.578 98.5783 110.863 101.055 108.265C103.059 104.841 105.3 103.661 109.191 103.306C109.545 104.605 108.719 104.251 108.247 104.723C107.658 106.966 108.483 108.855 107.776 111.217C109.662 111.925 108.955 112.988 108.837 114.523C109.898 117.474 109.545 121.488 108.483 124.44C109.898 129.044 114.969 133.649 110.488 137.899C111.549 140.143 112.728 141.087 110.724 143.212C112.61 146.872 108.247 149.115 110.724 153.13C112.021 155.727 102.47 159.151 102.47 155.373C102.587 152.421 102.705 148.997 102.941 146.4C103.295 146.046 104.592 146.4 103.649 145.337C102.823 144.393 101.88 144.157 101.88 142.386L101.762 142.504Z" fill="#E1E1E1"/>
<path d="M193.147 156.436C191.379 165.054 183.125 162.221 177.229 164.936C175.814 163.874 175.342 163.165 173.337 163.874C170.154 160.686 166.616 155.845 166.38 151.241C165.673 146.518 164.965 140.615 167.795 136.601C166.262 135.656 164.612 124.676 165.555 124.558C165.555 122.197 161.782 118.773 164.847 116.648C166.145 112.043 165.555 108.265 164.73 103.543C167.795 98.5839 172.276 89.3749 178.29 96.8129C180.412 96.2226 181.238 91.8542 182.653 96.5768C186.426 99.8826 185.719 93.271 190.789 101.063C190.2 108.383 188.667 104.959 183.832 109.328C180.177 114.523 176.639 110.036 176.05 119.127C173.809 122.669 179.587 124.912 182.535 124.44C184.422 123.141 185.601 123.141 186.308 125.621C186.78 126.329 188.077 126.919 187.487 127.864C186.308 128.336 185.601 129.517 185.365 130.934C183.596 135.656 177.7 135.066 178.644 140.733C176.993 143.094 175.46 144.511 177.7 147.226C176.285 155.491 185.011 151.123 188.549 149.588C189.02 152.539 192.322 153.484 193.147 156.199V156.436Z" fill="#E1E1E1"/>
</g>
<defs>
<clipPath id="clip0_4517_14">
<rect width="283" height="183" fill="white"/>
</clipPath>
</defs>
</svg>
