<svg width="240" height="49" viewBox="0 0 240 49" fill="none" xmlns="http://www.w3.org/2000/svg">
<path d="M216.854 35.9224C217.654 33.5059 215.988 31.2909 213.921 30.0155C212.588 30.0155 210.854 30.0155 209.721 29.0758C208.854 27.8676 208.054 26.995 207.721 25.5183C208.788 23.9073 207.521 22.1621 208.988 20.6183C210.588 19.4101 212.121 18.8731 213.721 17.732C214.321 17.2621 213.721 16.7923 213.921 16.1881C215.521 15.3827 214.788 13.5703 216.388 12.6306C218.188 12.1607 217.321 11.6238 216.721 10.6169C217.588 9.1402 217.454 7.46211 217.988 5.78403C216.121 4.77718 215.788 1.958 213.721 1.48814C212.721 -0.18994 209.921 -0.122817 208.254 0.145676C206.788 1.15253 208.788 1.75663 207.321 2.89773C206.188 5.31417 207.921 4.84431 209.121 6.05253C210.988 6.45527 211.454 6.05253 212.321 8.06622C211.588 9.74431 212.921 12.2279 211.254 13.2347C211.254 14.1744 211.121 14.5772 210.121 14.3087C206.854 16.121 210.388 11.0868 209.588 10.0128C207.854 7.66348 209.121 8.40184 209.454 6.99225C207.721 6.52239 204.854 4.64294 204.988 7.79773C204.254 7.79773 203.121 8.53609 203.388 9.34157C203.588 9.87855 204.654 10.3484 203.188 10.684C202.788 10.2142 203.054 9.74431 202.254 9.87855C203.788 12.1607 202.121 11.4895 202.521 14.0402C202.921 16.5909 201.654 19.1416 203.188 21.6251C203.654 22.9676 202.854 23.0347 202.721 24.1087C202.654 24.847 203.054 25.9881 202.188 26.458C202.788 28.0018 201.321 28.8744 202.188 30.2169C201.254 30.9553 201.921 31.2909 202.388 32.1635C202.188 32.7676 201.321 33.2375 201.988 33.8416C201.988 34.9155 201.254 35.9895 201.588 37.0635C202.321 37.5333 202.188 37.869 202.188 38.7416C202.321 39.547 202.988 39.8155 201.721 40.3525C201.721 41.3594 202.654 42.3662 202.388 43.4402C200.388 45.1854 204.988 45.6553 202.654 46.8635C202.454 47.2662 201.254 48.5416 201.921 48.9443C202.988 48.6087 204.654 49.0786 203.721 47.669C206.388 44.3128 212.188 45.1183 215.721 43.5073C215.788 42.5005 216.921 41.2251 216.721 40.084C217.588 39.6813 217.188 39.0101 216.988 38.2717C216.721 37.0635 220.521 34.5128 216.988 35.9224H216.854ZM212.788 39.0101C212.388 40.084 205.454 41.7621 207.388 39.3457C205.988 34.5128 213.654 34.647 212.788 39.0101ZM135.921 29.0758C135.654 30.9553 136.188 31.895 135.521 33.5731C136.388 34.5128 135.654 35.3854 135.121 36.1238C136.388 37.2649 135.388 38.2046 134.321 39.0772C133.988 39.547 133.654 41.0909 132.788 40.4196C132.254 39.1443 133.321 37.5333 132.321 36.1238C131.588 34.4457 132.788 32.5662 131.588 31.2909C133.188 30.6196 132.788 29.8813 131.921 28.6059C132.321 27.532 131.721 27.5991 131.321 26.458C132.854 23.3703 132.321 23.5717 129.854 21.2895C127.388 21.9607 130.454 23.169 128.254 24.2429C128.321 26.5251 126.121 27.6662 125.388 29.6799C125.388 31.5594 125.388 34.9155 122.654 34.4457C120.321 36.6607 119.988 29.9484 120.654 28.5388C119.321 27.532 120.454 26.1895 118.921 25.384C119.454 23.7731 117.921 22.3635 118.921 21.021C118.388 19.4772 117.454 16.4566 115.454 16.2553C114.588 16.5909 114.788 17.2621 114.921 18.0005C117.054 18.6046 115.121 19.6114 114.921 20.6183C115.988 22.632 113.721 24.1087 114.054 25.921C113.721 27.3306 114.854 28.6731 115.388 29.9484C115.388 30.8881 115.254 31.6936 115.788 32.432C113.921 33.1703 114.788 34.7813 114.654 36.3923C117.521 40.0169 108.588 42.9703 109.521 38.1375C109.788 37.2649 110.254 36.6607 109.721 35.7881C110.388 34.8484 110.788 34.1101 109.521 33.7073C110.054 32.2306 109.521 31.4923 109.921 30.1498C109.054 28.9416 108.654 28.069 109.321 26.7265C107.854 21.558 111.121 16.4566 109.721 11.6238C114.321 8.93883 109.854 4.91143 118.654 9.74431C120.388 11.758 118.521 14.4429 121.388 14.9799C122.988 16.4566 121.788 18.9402 122.988 20.5512C124.188 21.2224 122.988 22.1621 123.521 22.6991C126.054 22.0279 125.521 18.269 126.921 16.3895C126.588 15.047 126.588 14.8457 127.988 14.4429C128.388 13.3018 128.788 11.4224 129.854 10.6169C131.721 9.20732 131.854 8.60321 133.788 10.0799C134.121 11.3553 132.788 11.4224 133.721 12.3621C134.254 14.3087 134.854 16.0539 134.054 17.6649C134.721 17.9333 134.988 18.0676 134.388 18.806C133.854 19.6786 133.254 18.806 132.921 19.4101C133.454 20.1484 134.254 20.9539 134.454 21.8265C135.854 21.7594 136.121 21.558 135.721 23.3032C136.388 24.4443 135.988 24.1758 135.521 25.2498C136.121 26.8607 137.188 27.4649 135.788 28.9416L135.921 29.0758ZM83.921 19.0073C84.0543 21.6251 83.2543 23.9744 82.921 26.3909C83.7877 27.9347 83.2543 28.069 83.0543 29.6799C83.6543 30.821 82.921 32.2977 83.2543 33.7744C82.6543 35.9224 82.0543 38.6073 81.2543 40.4196C80.1877 43.2388 77.0543 42.1649 78.4543 39.547C77.2543 38.8087 78.4543 36.9964 77.6543 35.8553C74.6543 33.4388 73.3877 27.8676 69.2543 27.3977C68.1877 28.6731 68.4543 31.6936 69.1877 33.1703C68.321 35.7881 67.4543 39.2786 64.121 40.0169C63.721 39.6142 62.9877 39.4799 62.521 39.1443C62.7877 37.0635 63.121 34.7813 63.6543 32.6333C62.921 30.1498 63.6543 28.3375 62.8543 25.8539C61.921 24.5114 63.9877 23.0347 62.9877 21.3566C64.0543 19.0744 62.7877 17.1279 63.5877 14.7786C64.1877 14.2416 64.521 13.8388 64.521 12.9662C64.7877 12.5635 66.1877 12.9662 65.9877 12.2279C64.0543 10.8183 65.3877 9.61006 66.3877 11.6909C68.3877 11.8923 68.921 13.9059 70.1877 14.9128C70.8543 15.7854 70.3877 17.2621 71.721 17.732C73.5877 17.732 72.2543 17.7991 72.3877 19.1416C73.2543 20.0142 74.121 20.8868 75.2543 21.558C76.1877 22.9005 76.9877 27.0621 79.0543 26.2566C77.521 24.847 79.721 24.0416 79.1877 22.3635C79.6543 21.558 79.1877 20.8868 78.921 20.2155C79.721 18.806 79.521 17.195 79.3877 15.6512C80.921 15.8525 80.9877 15.1813 82.121 14.2416C84.8543 14.5101 82.121 17.7991 84.121 19.0744L83.921 19.0073ZM239.654 33.7073C241.054 31.5594 237.654 31.5594 237.721 29.3443C235.921 29.2772 234.521 27.1964 233.054 26.2566C231.788 26.458 230.454 25.1827 231.388 23.9744C231.521 22.9005 231.988 22.6991 232.988 22.9005C232.321 20.8868 232.854 18.6046 233.054 16.5909C230.121 17.5306 229.521 12.6306 226.654 13.2347C226.388 11.8251 226.054 11.9594 224.921 12.7649C224.321 12.295 224.654 11.6238 223.721 11.4895C221.454 11.6238 220.254 13.4361 218.521 14.0402C220.121 14.1073 218.854 15.1142 218.188 15.6512C216.654 20.5512 221.254 17.3964 220.121 19.2758C217.321 19.0073 220.121 22.4977 221.788 21.7594C222.321 20.8868 223.388 19.8799 224.588 20.1484C225.454 20.7525 224.788 22.0279 225.388 22.9676C224.521 23.8402 225.188 25.3169 223.654 25.384C224.521 25.8539 224.654 27.1292 223.654 27.4649C223.121 27.7333 223.521 28.069 224.054 27.8005C224.254 27.7333 224.321 27.1292 224.788 27.532C225.188 27.8676 224.654 28.2032 224.654 28.5388C225.188 29.3443 224.654 29.8142 224.388 30.4854C225.454 31.5594 224.254 33.4388 223.721 34.4457C224.921 35.9224 222.588 37.869 224.654 38.8758C224.921 39.7484 226.454 42.232 224.188 41.158C225.854 42.3662 222.588 45.6553 226.454 43.7758C227.121 45.7895 228.454 43.5744 229.454 43.1046C230.121 43.3731 229.654 44.7155 230.521 44.5813C231.388 44.0443 232.654 42.3662 233.988 42.8361C234.654 41.4936 235.721 40.2183 237.121 39.7484C237.654 38.8758 238.254 38.8087 238.988 38.6073C239.588 37.1306 239.588 35.3183 239.521 33.7073H239.654ZM234.521 36.5265C233.254 36.5265 231.854 38.6073 230.988 36.8621C228.988 38.3388 229.121 36.1238 229.721 34.5128C230.121 33.0361 231.588 34.3114 232.521 33.3717C233.321 35.1169 235.254 34.3114 234.454 36.5936L234.521 36.5265ZM183.588 34.3114C182.121 36.6607 182.854 36.1238 182.121 38.7416C181.121 39.8155 179.321 41.8964 178.721 39.3457C177.854 36.795 178.588 36.4594 176.054 33.7073C175.388 32.432 175.988 31.2909 174.854 30.3512C175.054 29.6128 175.188 28.1361 173.921 28.069C173.054 27.5991 174.054 26.995 174.054 26.3909C173.921 25.3169 172.788 23.5717 171.854 22.9005C169.654 22.9005 169.788 24.1087 169.388 25.8539C169.988 27.1292 168.654 27.532 169.054 28.7402C169.854 29.2772 169.988 29.9484 169.388 30.9553C170.254 34.3786 168.321 34.4457 168.188 37.0635C167.988 37.6676 166.388 39.0101 167.654 39.3457C166.854 40.9566 166.054 42.9703 164.854 44.2457C162.788 44.447 160.788 45.521 158.788 45.0512C156.254 46.1251 154.521 43.8429 157.321 42.5005C158.588 40.084 161.454 41.4936 162.588 39.4128C164.921 37.0635 163.788 33.1032 164.388 30.0155C165.921 28.7402 164.521 26.0553 165.921 25.384C164.588 23.7731 166.788 23.8402 166.388 22.4306C166.921 20.9539 165.721 19.2758 166.988 18.1347C168.054 16.9265 167.388 15.9868 167.721 14.7786C170.054 12.6977 172.188 9.67718 175.521 10.3484C178.321 13.9731 177.521 18.8731 180.254 22.9005C179.054 25.0484 179.588 25.0484 181.321 24.4443C179.388 26.1224 181.921 27.7333 181.254 29.8142C181.121 31.1566 181.988 30.9553 182.388 31.6936C182.254 32.8347 182.721 33.3046 183.521 34.2443L183.588 34.3114ZM41.6543 9.54294C42.521 8.20047 40.5877 7.93198 40.921 6.52239C39.1877 4.64294 36.2543 2.96485 33.8543 2.09225C32.521 2.42787 32.9877 4.30732 31.4543 4.64294C30.2543 6.79088 28.4543 5.44842 29.2543 6.99225C29.521 9.1402 27.8543 9.40869 27.721 11.221C27.721 14.0402 27.5877 15.9868 27.2543 18.806C26.7877 21.3566 27.321 24.1758 26.921 26.7936C26.0543 27.7333 26.721 28.2703 27.3877 29.0087C26.321 30.3512 27.7877 31.895 26.4543 33.0361C28.6543 34.9155 27.721 34.8484 26.8543 37.3991C25.721 39.4128 28.121 40.8895 28.3877 42.7018C28.3877 43.2388 26.9877 44.5813 28.3877 44.7827C34.5877 45.8566 35.4543 39.6813 39.0543 37.4662C41.3877 34.3114 39.321 35.5196 39.9877 32.2306C39.321 30.6868 35.721 25.6525 33.921 26.458C32.9877 25.7196 31.121 24.7128 32.6543 23.4375C31.8543 21.8936 33.0543 18.9402 34.8543 18.8731C35.6543 17.5306 36.4543 17.732 37.2543 18.3361C39.7877 16.2553 43.521 13.1676 41.8543 9.47581L41.6543 9.54294ZM32.9877 32.0964C35.4543 31.895 35.2543 34.5128 36.6543 35.2512C37.2543 36.4594 35.921 38.1375 36.0543 39.2786C35.3877 39.3457 34.521 39.6813 33.8543 39.8155C31.7877 38.4059 29.1877 39.6142 30.0543 35.9224C31.521 34.5799 30.4543 30.821 32.9877 32.0964ZM37.7877 12.8991C37.2543 14.9128 34.3877 15.6512 32.8543 16.5909C31.721 14.7786 32.921 11.2881 33.6543 9.47581C37.321 6.858 37.521 10.0128 37.7877 12.8991ZM155.788 29.8813C156.054 26.9279 152.721 25.1155 150.854 27.1964C148.654 27.3977 147.654 30.2169 145.721 30.821C144.254 32.2306 147.854 34.0429 145.721 36.0566C145.788 37.6676 146.788 40.5539 144.254 39.547C143.854 39.7484 143.588 41.0238 142.588 40.7553C141.721 39.547 140.254 38.9429 139.788 37.7347C141.721 36.9964 138.454 34.5799 140.254 30.9553C140.721 29.5457 138.854 28.8073 140.054 27.532C140.188 26.7936 140.388 23.0347 139.854 22.5649L140.654 22.2964C140.454 21.0881 140.254 19.8128 139.654 18.6717C140.788 16.7922 140.854 18.0005 139.721 15.7183C141.454 14.9128 142.521 11.2881 144.921 12.5635C142.188 14.3758 145.721 13.9059 146.054 16.7251C145.788 19.3429 145.054 21.6251 146.321 24.2429C146.988 25.8539 145.388 24.5114 145.454 25.5854C148.121 26.2566 148.321 22.7662 150.654 21.9607C153.388 22.0279 153.521 18.6046 155.388 17.2621C155.121 16.3224 154.188 15.047 155.321 13.7717C156.254 12.1607 157.321 11.6238 159.121 11.4224C159.254 12.0936 158.921 11.8251 158.654 12.0936C158.388 13.1676 158.721 14.0402 158.388 15.1142C159.254 15.4498 158.988 15.9196 158.854 16.7251C159.388 18.1347 159.188 20.0142 158.721 21.4238C159.388 23.5717 161.788 25.7868 159.654 27.8005C160.121 28.8744 160.721 29.2772 159.721 30.3512C160.588 32.0964 158.588 33.1032 159.721 35.0498C160.321 36.258 155.854 37.9361 155.854 36.1238C155.854 34.7142 155.988 33.1032 156.121 31.895C156.321 31.7607 156.854 31.895 156.454 31.4251C156.054 30.9553 155.588 30.8881 155.588 30.0155L155.788 29.8813ZM23.521 17.3964C24.1877 18.6046 23.321 20.484 22.3877 21.4238C22.7877 23.5717 20.921 25.5854 21.8543 27.8676C22.3877 30.0827 20.8543 32.4991 22.4543 34.2443C21.0543 35.721 21.721 37.7347 20.7877 39.3457C20.3877 39.8155 16.921 44.3799 16.8543 41.8964C18.9877 37.8018 16.0543 41.2923 17.5877 36.1909C18.3877 34.9827 16.9877 32.969 17.121 31.6265C18.321 29.8142 15.7877 29.3443 14.5877 30.3512C11.8543 32.4991 6.52101 33.5059 5.98768 37.6005C4.85435 39.9498 2.18768 44.0443 0.121013 40.5539C0.721013 39.547 0.454346 37.1977 0.254346 35.9895C-0.278987 35.1169 0.121013 34.8484 0.78768 34.3786C-0.745653 32.2306 1.98768 29.6128 0.38768 27.4649C1.98768 26.5251 0.58768 25.7868 0.38768 24.1758C1.92101 22.4977 0.98768 19.5443 0.38768 17.3292C1.38768 16.3895 1.12101 14.9799 1.98768 13.9059C3.65435 12.1607 5.52101 10.4155 6.18768 13.9059C6.78768 14.6443 7.78768 15.6512 6.45435 16.0539C5.65435 16.9265 6.25435 17.6649 5.38768 18.4703C5.32101 18.9402 6.38768 19.5443 5.85435 20.1484C4.72101 20.484 5.05435 21.021 5.52101 21.8936C4.98768 24.1758 5.78768 26.8607 4.85435 29.0087C5.52101 31.9621 1.72101 36.4594 6.32101 32.2977C8.78768 31.2238 10.321 27.532 12.7877 26.3909C14.721 26.7265 17.2543 25.6525 17.2543 23.4375C17.921 22.7662 17.9877 22.095 17.6543 21.2895C18.1877 18.6717 19.321 16.5238 20.7877 14.4429C22.0543 14.9799 24.3877 15.4498 23.6543 17.3292L23.521 17.3964ZM60.3877 34.7142C60.521 35.9224 59.921 37.7347 59.921 38.8758C58.7877 38.9429 58.121 40.8224 56.921 39.9498C55.4543 37.6676 53.3877 35.7881 51.6543 33.6402C51.321 32.432 52.321 30.2169 50.1877 30.4183C47.321 30.7539 46.6543 34.0429 46.521 36.5265C48.5877 37.4662 54.0543 36.8621 50.8543 41.0909C47.9877 40.1512 46.7877 39.4799 43.9877 40.8895C42.8543 38.8758 45.4543 39.2786 42.4543 35.7881C43.3877 33.9087 43.0543 32.2977 44.7877 31.2238C45.1877 29.3443 45.5877 27.8005 46.4543 25.7868C47.3877 25.1827 47.6543 24.5786 47.0543 23.5717C47.921 22.8333 48.6543 22.1621 48.5877 20.8868C47.5877 19.947 49.2543 18.4032 47.3877 18.1347C47.321 17.6649 47.3877 17.2621 47.3877 16.7923C46.4543 14.5101 45.5877 12.0265 46.921 8.73746C49.5877 8.33472 51.1877 6.858 52.6543 10.147C52.7877 11.5566 51.7877 11.8251 53.121 12.6306C53.3877 13.5703 53.3877 14.1744 54.4543 14.3087C55.2543 15.3155 53.2543 16.658 54.2543 17.8662C55.9877 18.806 54.921 20.9539 55.8543 22.5649C56.921 23.9073 56.121 25.8539 56.1877 27.3306C57.7877 28.8073 57.0543 31.4251 59.0543 32.5662C58.8543 33.7073 59.7877 34.1101 60.3877 34.7142ZM100.654 29.3443C99.1877 29.2101 100.321 27.1964 99.1877 27.1964C98.521 27.532 97.9877 27.8676 97.4543 27.1964C91.3877 24.7799 95.521 24.9142 92.721 21.6923C92.4543 20.5512 93.3877 20.7525 93.9877 20.1484C94.4543 18.1347 95.321 15.7183 93.921 13.9059C94.121 13.0333 94.5877 12.0936 93.6543 11.2881C94.2543 10.3484 93.8543 9.40869 93.521 8.46896C93.6543 7.32787 93.0543 6.858 92.1877 6.25389C91.7877 5.58266 91.8543 4.50869 90.921 4.71006C90.2543 4.50869 89.9877 3.56896 89.521 3.0991C88.321 2.36074 85.6543 2.2265 85.2543 3.70321C83.921 5.51554 82.521 6.72376 84.3877 8.67033C84.521 9.47581 83.721 9.61006 83.721 10.147C84.121 11.2881 83.8543 12.5635 85.4543 12.6306C86.3877 12.7649 88.121 12.4292 87.921 11.3553C89.4543 11.4895 90.8543 12.7649 91.121 14.4429C89.8543 17.4635 91.121 21.021 89.5877 24.0416C89.7877 25.6525 90.1877 27.0621 89.321 28.5388C88.921 29.8142 90.6543 30.9553 88.921 31.4251C88.1877 32.969 90.0543 32.1635 88.921 34.647C91.0543 35.9224 89.2543 38.4059 89.8543 40.2183C89.1877 43.1717 94.0543 40.2183 95.6543 40.4868C97.121 41.8964 97.0543 39.8155 99.0543 40.3525C100.054 40.0169 99.6543 39.0772 100.121 38.4059C101.054 37.6005 101.788 36.3923 100.788 35.2512C102.588 34.9155 100.588 30.7539 100.788 29.3443H100.654ZM98.521 35.0498C99.2543 37.1306 96.1877 36.795 95.0543 37.1306C94.521 36.4594 92.0543 36.6607 93.121 35.9895C92.6543 33.1703 92.9877 35.5868 94.121 32.9018C95.8543 32.2977 99.6543 32.0964 98.4543 35.0498H98.521ZM197.721 36.5265C196.854 40.5539 192.988 39.2786 190.254 40.5539C189.588 40.0169 189.388 39.6813 188.454 40.084C186.921 38.5402 185.321 36.3251 185.188 34.1101C184.854 31.895 184.521 29.0758 185.854 27.1964C185.121 26.7265 184.321 21.558 184.788 21.4909C184.788 20.4169 183.054 18.7388 184.454 17.7991C185.054 15.6512 184.788 13.8388 184.388 11.6238C185.788 9.27444 187.921 4.91143 190.721 8.46896C191.721 8.13335 192.054 6.11965 192.788 8.33472C194.588 9.87855 194.188 6.79088 196.588 10.4155C196.321 13.8388 195.588 12.2279 193.321 14.3758C191.588 16.7923 189.921 14.7114 189.654 19.0073C188.588 20.6854 191.321 21.6922 192.721 21.4909C193.588 20.8868 194.188 20.8868 194.454 22.095C194.654 22.4306 195.321 22.6991 195.054 23.169C194.521 23.4375 194.188 23.9744 194.054 24.5786C193.254 26.7936 190.454 26.5922 190.921 29.2101C190.121 30.3512 189.454 31.0224 190.454 32.2977C189.788 36.1909 193.854 34.1772 195.521 33.4388C195.721 34.7813 197.254 35.2512 197.721 36.5936V36.5265Z" fill="white"/>
</svg>
