<svg width="627" height="128" viewBox="0 0 627 128" fill="none" xmlns="http://www.w3.org/2000/svg">
<path d="M472.429 71.1382C466.584 71.1382 462.278 69.8052 459.509 67.1393C456.775 64.4393 455.408 60.9019 455.408 56.5271C455.408 52.2549 456.775 48.7858 459.509 46.1199C462.278 43.454 466.584 42.1211 472.429 42.1211C476.359 42.1211 479.64 42.7705 482.272 44.0692C484.938 45.3338 486.903 47.0598 488.168 49.2472C489.432 51.4004 490.065 53.827 490.065 56.5271C490.065 60.9361 488.595 64.4735 485.656 67.1393C482.75 69.8052 478.341 71.1382 472.429 71.1382ZM472.634 62.4228C474.855 62.4228 476.513 61.893 477.607 60.8335C478.7 59.774 479.247 58.3556 479.247 56.5784C479.247 54.9036 478.7 53.5365 477.607 52.477C476.513 51.3833 474.855 50.8365 472.634 50.8365C470.412 50.8365 468.789 51.3662 467.763 52.4257C466.738 53.4853 466.225 54.8695 466.225 56.5784C466.225 58.3556 466.738 59.774 467.763 60.8335C468.789 61.893 470.412 62.4228 472.634 62.4228Z" fill="#E5DAC8"/>
<path d="M453.846 52.272C448.72 52.1353 444.994 52.0498 442.67 52.0156V70.6255H431.802V52.0156C429.512 52.0498 425.803 52.1353 420.677 52.272V42.6338H453.846V52.272Z" fill="#E5DAC8"/>
<path d="M412.699 57.8088H395.986C396.26 59.3126 396.926 60.543 397.986 61.5C399.079 62.4228 400.617 62.8842 402.6 62.8842C404.035 62.8842 405.385 62.6108 406.65 62.0639C407.914 61.4829 408.922 60.6797 409.674 59.6544C411.964 60.7823 415.006 61.9956 418.8 63.2943C417.74 65.6868 415.809 67.6007 413.007 69.0362C410.238 70.4375 406.615 71.1382 402.138 71.1382C396.328 71.1382 392.021 69.8052 389.219 67.1393C386.45 64.4393 385.066 60.9019 385.066 56.5271C385.066 52.2549 386.45 48.7858 389.219 46.1199C391.987 43.454 396.294 42.1211 402.138 42.1211C405.624 42.1211 408.649 42.7021 411.212 43.8642C413.776 45.0262 415.741 46.6497 417.108 48.7345C418.475 50.7852 419.159 53.1435 419.159 55.8094C419.159 56.698 419.125 57.3645 419.056 57.8088H412.699ZM402.856 49.8624C401.147 49.8624 399.746 50.1871 398.652 50.8365C397.558 51.4859 396.789 52.3745 396.345 53.5023H408.444C408.034 52.4087 407.367 51.5371 406.445 50.8877C405.522 50.2042 404.326 49.8624 402.856 49.8624Z" fill="#E5DAC8"/>
<path d="M364.338 71.1382C358.493 71.1382 354.187 69.8052 351.418 67.1393C348.684 64.4393 347.317 60.9019 347.317 56.5271C347.317 52.2549 348.684 48.7858 351.418 46.1199C354.187 43.454 358.493 42.1211 364.338 42.1211C368.268 42.1211 371.549 42.7705 374.181 44.0692C376.847 45.3338 378.812 47.0598 380.077 49.2472C381.341 51.4004 381.973 53.827 381.973 56.5271C381.973 60.9361 380.504 64.4735 377.564 67.1393C374.659 69.8052 370.25 71.1382 364.338 71.1382ZM364.543 62.4228C366.764 62.4228 368.422 61.893 369.516 60.8335C370.609 59.774 371.156 58.3556 371.156 56.5784C371.156 54.9036 370.609 53.5365 369.516 52.477C368.422 51.3833 366.764 50.8365 364.543 50.8365C362.321 50.8365 360.698 51.3662 359.672 52.4257C358.647 53.4853 358.134 54.8695 358.134 56.5784C358.134 58.3556 358.647 59.774 359.672 60.8335C360.698 61.893 362.321 62.4228 364.543 62.4228Z" fill="#E5DAC8"/>
<path d="M338.381 57.2449C339.919 58.4753 341.098 59.8595 341.918 61.3975C342.738 62.9355 343.507 64.7811 344.225 66.9343C344.943 68.8141 345.455 70.0445 345.763 70.6255H333.408C333.305 70.3863 333.1 69.6344 332.792 68.3698C332.519 67.1052 332.246 66.0969 331.972 65.345C331.699 64.5589 331.289 63.8754 330.742 63.2944C329.887 62.3715 328.93 61.7734 327.871 61.5C326.811 61.2266 325.239 61.0899 323.154 61.0899V70.6255H312.183C312.354 66.7292 312.439 62.0639 312.439 56.6297C312.439 51.1954 312.354 46.5301 312.183 42.6338H323.154V52.6821H323.359C327.426 48.6149 330.383 45.2655 332.228 42.6338H345.763L333.766 54.579C335.544 55.3309 337.082 56.2195 338.381 57.2449Z" fill="#E5DAC8"/>
<path d="M292.873 60.2188C294.411 60.2188 295.693 60.8169 296.718 62.0131C297.778 63.1751 298.307 64.7986 298.307 66.8834C298.307 68.5923 298 70.3867 297.385 72.2665C296.804 74.1463 295.983 75.6672 294.924 76.8292H290.566C292.002 74.8811 292.907 72.9671 293.283 71.0873C291.506 71.0873 290.088 70.5576 289.028 69.4981C287.969 68.4385 287.439 67.1569 287.439 65.653C287.439 64.1492 287.969 62.8675 289.028 61.808C290.088 60.7485 291.369 60.2188 292.873 60.2188Z" fill="#E5DAC8"/>
<path d="M279.374 41.8345C281.616 41.8345 283.257 42.6001 284.296 44.1312C285.389 45.6624 285.936 47.6037 285.936 49.9552C285.936 52.0879 285.499 54.3573 284.624 56.7634C283.749 59.1148 282.546 61.3569 281.014 63.4896C279.538 65.5676 277.87 67.2902 276.011 68.6573C274.152 69.9698 272.238 70.626 270.269 70.626C268.027 70.626 266.359 69.833 265.265 68.2472C264.226 66.6066 263.707 64.638 263.707 62.3412C263.707 60.2085 264.117 57.9938 264.937 55.697C265.812 53.1816 267.015 50.8848 268.546 48.8068C270.132 46.7288 271.855 45.0609 273.714 43.8031C275.628 42.4907 277.515 41.8345 279.374 41.8345ZM271.417 68.8214C272.73 68.8214 274.097 68.2472 275.519 67.0988C276.995 65.8957 278.362 64.3372 279.62 62.4233C280.878 60.5093 281.889 58.4039 282.655 56.1072C283.475 53.8104 283.885 51.541 283.885 49.2989C283.885 47.8771 283.612 46.7288 283.065 45.8538C282.573 44.9242 281.78 44.4593 280.686 44.4593C279.538 44.4593 278.335 44.9515 277.077 45.9358C275.819 46.9202 274.616 48.2326 273.468 49.8731C272.374 51.5137 271.417 53.3456 270.597 55.3689C269.886 57.0642 269.339 58.6774 268.956 60.2085C268.574 61.685 268.382 63.0521 268.382 64.3099C268.382 65.677 268.628 66.7707 269.121 67.591C269.613 68.4112 270.378 68.8214 271.417 68.8214Z" fill="#E5DAC8"/>
<path d="M261.863 50.365C261.863 52.0056 261.426 53.9742 260.551 56.271C259.676 58.5677 258.445 60.8098 256.859 62.9972C255.274 65.1846 253.387 67.0165 251.2 68.493C249.067 69.9148 246.743 70.6257 244.227 70.6257C242.04 70.6257 240.509 69.9695 239.634 68.6571C238.759 67.3446 238.321 65.7041 238.321 63.7354C238.321 62.6417 238.458 61.5207 238.731 60.3723C239.005 59.2239 239.579 57.7201 240.454 55.8608C239.962 55.8608 239.688 55.7515 239.634 55.5327C239.634 55.2593 239.634 55.0132 239.634 54.7945C240.181 53.4821 240.974 51.7595 242.013 49.6268C243.052 47.4394 244.255 45.0606 245.622 42.4904C246.989 39.8656 248.438 37.2407 249.969 34.6158C251.5 31.991 253.032 29.5302 254.563 27.2334C256.094 24.882 257.543 22.9406 258.91 21.4095C262.465 17.1987 265.937 13.9177 269.328 11.5662C272.718 9.1601 275.972 7.95703 279.089 7.95703C280.948 7.95703 282.37 8.42185 283.354 9.35149C284.393 10.2264 284.913 11.4022 284.913 12.8787C284.913 14.902 283.983 17.3628 282.124 20.2611C280.264 23.1047 277.476 26.0577 273.757 29.12C271.515 30.9793 268.535 33.0026 264.816 35.19C261.097 37.3227 256.723 39.1 251.692 40.5218H251.528C249.668 43.9122 248.001 47.1933 246.524 50.365C245.102 53.5367 243.981 56.4077 243.161 58.9779C242.341 61.4934 241.931 63.5167 241.931 65.0479C241.931 65.8681 242.013 66.6064 242.177 67.2626C242.286 67.7001 242.532 68.1102 242.915 68.493C243.352 68.8211 243.872 68.9852 244.473 68.9852C245.239 68.9852 246.114 68.6844 247.098 68.0829C248.137 67.4813 249.286 66.415 250.543 64.8838C251.309 63.9542 252.102 62.8331 252.922 61.5207C253.742 60.2083 254.508 58.8685 255.219 57.5014C255.93 56.0796 256.504 54.8218 256.941 53.7281C257.871 51.5408 258.336 49.5448 258.336 47.7402C258.336 45.9902 257.926 44.8419 257.106 44.295C256.34 43.7482 255.164 43.4748 253.578 43.4748C252.594 43.4748 252.102 43.2013 252.102 42.6545C252.102 42.4357 252.239 42.217 252.512 41.9983C252.84 41.7795 253.278 41.6702 253.824 41.6702C255.902 41.6702 257.762 42.4357 259.402 43.9669C261.043 45.4981 261.863 47.6308 261.863 50.365ZM279.089 10.6639C277.229 10.6639 275.179 11.4569 272.937 13.0427C270.749 14.5739 268.48 16.6519 266.128 19.2768C263.777 21.9016 261.453 24.882 259.156 28.2177C256.914 31.4988 254.781 34.8893 252.758 38.3891C256.969 37.0766 260.797 35.4088 264.242 33.3854C267.687 31.3074 270.476 29.3934 272.609 27.6435C275.835 24.964 278.241 22.3938 279.827 19.933C281.413 17.4175 282.206 15.3668 282.206 13.781C282.206 12.8513 281.932 12.1131 281.386 11.5662C280.893 10.9647 280.128 10.6639 279.089 10.6639Z" fill="#E5DAC8"/>
<path d="M225.378 38.3888C224.011 38.3888 222.562 38.1974 221.031 37.8146C219.554 37.4318 218.051 37.049 216.519 36.6662C215.043 36.2834 213.648 36.092 212.336 36.092C211.242 36.092 210.231 36.2834 209.301 36.6662C208.371 36.9943 207.606 37.6779 207.004 38.7169L206.758 39.127C206.594 39.3457 206.457 39.4551 206.348 39.4551C206.239 39.4551 206.129 39.3731 206.02 39.209C205.911 39.045 205.883 38.8536 205.938 38.6348C206.539 37.1037 207.633 35.9006 209.219 35.0257C210.805 34.096 212.609 33.6312 214.633 33.6312C216.055 33.6312 217.859 33.8226 220.047 34.2054C222.289 34.5882 224.312 34.7796 226.117 34.7796C227.265 34.7796 228.55 34.7249 229.972 34.6155C231.448 34.4515 232.843 34.096 234.155 33.5492C235.522 32.9476 236.561 31.9907 237.272 30.6782C237.819 30.6782 238.093 30.8696 238.093 31.2524C237.054 33.7132 235.632 35.5178 233.827 36.6662C232.023 37.8146 229.206 38.3888 225.378 38.3888ZM192.732 70.6254C192.13 70.6254 191.638 70.6254 191.255 70.6254C190.818 70.6801 190.38 70.8168 189.943 71.0355C191.966 67.1529 193.88 63.2703 195.685 59.3877C197.489 55.4504 199.321 51.7318 201.18 48.232C202.274 46.2634 203.176 44.8962 203.887 44.1307C204.653 43.3104 205.665 42.9003 206.922 42.9003C207.36 42.9003 207.825 42.9823 208.317 43.1463C208.809 43.2557 209.301 43.3104 209.793 43.3104C210.121 43.3104 210.367 43.283 210.531 43.2284C209.766 43.6658 208.782 44.7595 207.578 46.5094C206.375 48.2047 205.145 50.1733 203.887 52.4154C202.63 54.6575 201.508 56.7628 200.524 58.7315C201.563 57.4737 202.629 56.216 203.723 54.9582C204.872 53.7005 206.129 52.4974 207.496 51.349C208.7 50.31 209.957 49.189 211.27 47.9859C212.637 46.7282 213.977 45.6618 215.289 44.7869C216.601 43.9119 217.75 43.4744 218.734 43.4744C219.117 43.4744 219.363 43.5018 219.472 43.5565C220.511 43.9939 221.031 44.7049 221.031 45.6892C221.031 46.0173 220.894 46.5094 220.621 47.1657C219.91 49.0249 218.98 50.9389 217.832 52.9076C216.738 54.8215 215.699 56.7628 214.715 58.7315C215.535 57.7472 216.547 56.5441 217.75 55.1223C219.008 53.7005 220.265 52.4427 221.523 51.349C222.726 50.2553 224.257 49.107 226.117 47.9039C227.976 46.7008 229.808 45.6618 231.612 44.7869C233.417 43.9119 234.866 43.4744 235.96 43.4744C236.343 43.4744 236.616 43.5018 236.78 43.5565C236.78 43.5565 236.479 44.1033 235.878 45.197C235.276 46.236 234.511 47.6305 233.581 49.3804C232.706 51.0756 231.804 52.9076 230.874 54.8762C229.945 56.7902 229.097 58.6495 228.331 60.454C227.62 62.204 227.156 63.6804 226.937 64.8835C226.773 65.5944 226.691 66.2506 226.691 66.8522C226.691 67.7271 226.855 68.3013 227.183 68.5747C227.511 68.8481 227.867 68.9849 228.249 68.9849C229.343 68.9849 230.409 68.52 231.448 67.5904C232.542 66.6608 233.608 65.485 234.647 64.0632C235.686 62.5867 236.616 61.0282 237.436 59.3877C238.311 57.7472 239.05 56.216 239.651 54.7942C240.307 54.7942 240.635 55.0403 240.635 55.5324C240.034 57.0089 239.268 58.6495 238.339 60.454C237.464 62.204 236.452 63.8718 235.304 65.4577C234.155 67.0436 232.897 68.356 231.53 69.395C230.163 70.434 228.687 70.9535 227.101 70.9535C225.953 70.9535 224.859 70.5707 223.82 69.8051C222.836 69.0395 222.343 67.6177 222.343 65.5397C222.343 63.2976 222.863 61.0556 223.902 58.8135C224.996 56.5714 226.117 54.5208 227.265 52.6615C227.812 51.7318 228.085 50.9936 228.085 50.4467C228.085 49.7905 227.757 49.4624 227.101 49.4624C226.554 49.4624 225.788 49.7358 224.804 50.2827C223.875 50.8295 222.699 51.7865 221.277 53.1536C220.402 53.9739 219.363 55.1223 218.16 56.5988C217.012 58.0206 215.836 59.5791 214.633 61.2743C213.43 62.9695 212.391 64.6374 211.516 66.278C210.641 67.9185 210.067 69.3677 209.793 70.6254C208.973 70.6254 208.317 70.2973 207.825 69.6411C207.332 68.9302 207.086 68.1099 207.086 67.1803C207.086 67.0162 207.086 66.8522 207.086 66.6881C207.086 66.5241 207.114 66.3326 207.168 66.1139C207.442 64.4187 207.879 62.9969 208.481 61.8485C209.082 60.6454 209.766 59.251 210.531 57.6651C210.914 56.9542 211.352 56.134 211.844 55.2043C212.336 54.22 212.774 53.2903 213.156 52.4154C213.539 51.4858 213.731 50.7202 213.731 50.1186C213.731 49.5718 213.512 49.2984 213.074 49.2984C212.582 49.2984 211.926 49.5444 211.106 50.0366C210.34 50.5288 209.602 51.103 208.891 51.7592C208.18 52.3607 207.633 52.8255 207.25 53.1536C205.883 54.4661 204.215 56.3527 202.247 58.8135C200.333 61.2743 198.227 64.7741 195.931 69.313C195.603 69.9145 195.22 70.2973 194.782 70.4613C194.345 70.5707 193.661 70.6254 192.732 70.6254Z" fill="#E5DAC8"/>
<path d="M183.405 70.9536C180.398 70.9536 178.156 70.1607 176.679 68.5748C175.257 66.9889 174.547 64.8562 174.547 62.1767C174.547 60.9189 174.793 59.4698 175.285 57.8292C175.777 56.1887 176.433 54.5208 177.253 52.8256C178.074 51.1304 178.976 49.6265 179.96 48.3141C181.546 46.1814 183.296 44.5409 185.21 43.3925C187.124 42.1894 189.065 41.5879 191.034 41.5879C193.112 41.5879 194.588 42.0527 195.463 42.9824C196.393 43.8573 196.858 44.8963 196.858 46.0994C196.858 47.2478 196.584 48.2868 196.038 49.2164C195.491 50.0914 194.862 50.8023 194.151 51.3491C193.495 51.896 192.921 52.1694 192.428 52.1694C191.991 52.1694 191.608 52.0053 191.28 51.6772C191.718 51.1304 192.182 50.4742 192.675 49.7086C193.167 48.943 193.522 48.2047 193.741 47.4938C193.96 46.8376 194.069 46.1814 194.069 45.5252C194.069 44.1034 193.413 43.3925 192.1 43.3925C190.514 43.3925 188.956 44.0487 187.425 45.3611C185.948 46.6736 184.581 48.3688 183.323 50.4468C182.12 52.4701 181.136 54.6302 180.37 56.927C179.66 59.169 179.304 61.247 179.304 63.161C179.304 64.9109 179.66 66.3601 180.37 67.5084C181.136 68.6568 182.366 69.231 184.062 69.231C186.304 69.231 188.272 68.5201 189.968 67.0983C191.663 65.6218 193.167 63.7899 194.479 61.6025C195.792 59.3604 196.94 57.091 197.924 54.7942C198.143 54.7942 198.362 54.8489 198.58 54.9583C198.799 55.013 198.909 55.2044 198.909 55.5325C197.815 58.2667 196.53 60.8096 195.053 63.161C193.577 65.5125 191.882 67.3991 189.968 68.8209C188.108 70.2427 185.921 70.9536 183.405 70.9536Z" fill="#E5DAC8"/>
<path d="M136.456 96.7926C134.05 96.7926 132.409 96.2184 131.534 95.0701C130.659 93.9217 130.222 92.6092 130.222 91.1328C130.222 89.0547 130.905 87.1408 132.272 85.3909C133.585 83.641 135.362 82.0551 137.604 80.6333C139.846 79.2115 142.334 77.9264 145.069 76.778C147.803 75.6843 150.565 74.7273 153.353 73.9071C154.392 72.1025 155.349 70.0518 156.224 67.755C157.099 65.4036 157.892 63.1342 158.603 60.9468C159.314 58.7047 159.888 56.8728 160.326 55.451C159.67 56.6541 158.822 58.1305 157.783 59.8804C156.799 61.5757 155.678 63.2436 154.42 64.8841C153.162 66.5246 151.795 67.8918 150.318 68.9855C148.897 70.0791 147.393 70.626 145.807 70.626C145.205 70.626 144.467 70.4893 143.592 70.2159C142.772 69.9424 142.034 69.4503 141.378 68.7394C140.776 67.9738 140.475 66.8527 140.475 65.3763C140.475 63.9545 140.831 62.5053 141.542 61.0288C142.307 59.5523 143.155 57.7477 144.084 55.615C143.975 55.615 143.838 55.5604 143.674 55.451C143.51 55.2869 143.428 55.0682 143.428 54.7948C143.538 54.576 143.811 54.0292 144.248 53.1542C144.686 52.2246 145.205 51.1856 145.807 50.0372C146.408 48.8341 146.983 47.6858 147.53 46.5921C148.076 45.4984 148.514 44.6508 148.842 44.0492C149.443 42.8462 150.482 42.2446 151.959 42.2446H157.045C156.662 42.5727 156.17 42.9555 155.568 43.393C155.021 43.7758 154.502 44.3773 154.01 45.1976C152.533 47.7131 151.248 50.1466 150.154 52.498C149.061 54.7948 147.885 57.2556 146.627 59.8804C146.026 61.1382 145.588 62.2866 145.315 63.3256C145.041 64.3646 144.905 65.2669 144.905 66.0325C144.905 67.8371 145.506 68.7394 146.709 68.7394C148.022 68.7394 149.608 67.673 151.467 65.5403C152.998 63.7357 154.529 61.603 156.06 59.1422C157.646 56.6267 159.15 54.0565 160.572 51.4317C162.048 48.7521 163.333 46.2913 164.427 44.0492C165.029 42.8462 166.095 42.2446 167.626 42.2446H172.138C170.552 43.3383 169.321 44.7601 168.446 46.51C167.626 48.2599 166.697 50.502 165.658 53.2363C164.509 56.2439 163.415 59.3609 162.376 62.5873C161.337 65.7591 160.107 69.0401 158.685 72.4306C162.076 71.3916 164.892 69.9698 167.134 68.1652C169.431 66.3606 171.29 64.3099 172.712 62.0131C174.188 59.7164 175.391 57.3103 176.321 54.7948C176.977 54.7948 177.305 55.0409 177.305 55.533C176.048 58.4313 174.845 60.8648 173.696 62.8334C172.602 64.8021 171.372 66.47 170.005 67.8371C168.693 69.2042 167.052 70.4073 165.083 71.4463C163.169 72.4853 160.736 73.4969 157.783 74.4813C156.47 76.8874 155.076 79.3755 153.6 81.9457C152.178 84.5706 150.619 87.0041 148.924 89.2461C147.283 91.4882 145.424 93.2928 143.346 94.6599C141.323 96.0817 139.026 96.7926 136.456 96.7926ZM135.554 95.0701C138.014 95.0701 140.585 93.3748 143.264 89.9844C145.944 86.6486 148.787 82.1645 151.795 76.5319C149.662 77.0788 147.447 77.8717 145.151 78.9107C142.854 79.9497 140.694 81.1255 138.671 82.4379C136.702 83.805 135.089 85.2815 133.831 86.8674C132.573 88.4532 131.944 90.0938 131.944 91.789C131.944 92.6639 132.245 93.4295 132.847 94.0857C133.394 94.742 134.296 95.0701 135.554 95.0701Z" fill="#E5DAC8"/>
<path d="M118.514 56.2707L118.022 57.4191C120.483 54.0833 123.081 51.2397 125.815 48.8882C128.604 46.4821 131.229 44.6502 133.689 43.3924C136.15 42.08 138.092 41.4238 139.513 41.4238C141.373 41.4238 142.521 41.9159 142.958 42.9003C143.122 43.2831 143.205 43.6932 143.205 44.1307C143.205 44.9509 142.931 45.7165 142.384 46.4274C141.837 47.0836 141.072 47.4117 140.087 47.4117C140.033 47.4117 139.923 47.4117 139.759 47.4117C139.595 47.4117 139.459 47.3844 139.349 47.3297C139.24 46.5641 138.966 45.9079 138.529 45.3611C138.092 44.8142 137.244 44.5408 135.986 44.5408C134.564 44.5408 133.17 45.1423 131.803 46.3454C130.49 47.4938 129.369 49.0796 128.44 51.103C127.565 53.0716 127.073 55.2863 126.963 57.7472C126.908 59.4424 127.018 61.165 127.291 62.9149C127.619 64.6101 128.194 66.0319 129.014 67.1803C129.834 68.274 130.983 68.8208 132.459 68.8208C133.771 68.8208 134.974 68.3287 136.068 67.3443C137.162 66.36 138.174 65.1296 139.103 63.6531C140.033 62.1219 140.853 60.5634 141.564 58.9776C142.275 57.3917 142.904 55.9973 143.451 54.7942C144.107 54.7942 144.435 55.0403 144.435 55.5324C143.396 58.0479 142.275 60.5087 141.072 62.9149C139.923 65.321 138.529 67.317 136.888 68.9028C135.248 70.434 133.252 71.1996 130.9 71.1996C128.221 71.1996 126.198 70.352 124.83 68.6568C123.463 66.9069 122.67 64.6374 122.452 61.8485C122.233 59.0596 122.534 56.0519 123.354 52.8255C121.495 54.9582 119.991 56.8449 118.842 58.4854C117.749 60.0713 116.764 61.6845 115.89 63.325C115.069 64.9655 114.167 66.9068 113.183 69.1489C112.909 69.8051 112.554 70.1606 112.116 70.2153C111.733 70.27 111.105 70.2973 110.23 70.2973H108.671C108.507 70.2973 108.316 70.3793 108.097 70.5434C107.878 70.6528 107.659 70.7621 107.441 70.8715C108.097 69.5591 108.781 68.1919 109.491 66.7701C110.148 65.3483 110.941 63.6805 111.87 61.7665C112.8 59.8525 113.894 57.5284 115.151 54.7942C115.261 54.6301 115.589 53.8645 116.136 52.4974C116.737 51.0756 117.557 49.271 118.596 47.0836C119.69 44.7869 120.756 43.0917 121.795 41.998C122.834 40.9043 124.01 40.3574 125.323 40.3574C125.815 40.3574 126.198 40.4121 126.471 40.5215C126.744 40.6308 127.291 40.6855 128.112 40.6855C126.143 42.8182 124.475 45.1697 123.108 47.7399C121.795 50.31 120.264 53.1536 118.514 56.2707Z" fill="#E5DAC8"/>
<path d="M88.6367 54.7943C89.1288 53.6459 89.7304 52.3334 90.4413 50.857C91.1522 49.3805 91.9998 47.9587 92.9841 46.5915C94.0231 45.1697 95.1988 43.994 96.5113 43.0644C97.8784 42.1347 99.4096 41.6699 101.105 41.6699C102.745 41.6699 104.085 42.1347 105.124 43.0644C106.218 43.9393 106.765 45.3338 106.765 47.2478C106.765 48.7789 106.108 50.5835 104.796 52.6615C103.484 54.7396 101.488 56.5715 98.808 58.1574C100.831 58.1027 102.253 58.6222 103.073 59.7159C103.948 60.7549 104.386 62.04 104.386 63.5711C104.386 63.9539 104.331 64.5555 104.222 65.3757C104.167 66.196 104.058 67.0436 103.894 67.9186C103.784 68.7389 103.648 69.3677 103.484 69.8052C106.108 68.6021 108.323 66.6608 110.128 63.9813C111.987 61.247 113.655 58.1847 115.131 54.7943C115.788 54.7943 116.116 55.0403 116.116 55.5325C115.022 58.1574 113.928 60.5361 112.835 62.6688C111.741 64.8015 110.429 66.6335 108.897 68.1647C107.421 69.6411 105.48 70.7895 103.073 71.6098C101.98 74.6175 100.449 77.5431 98.4799 80.3867C96.566 83.285 94.3512 85.9098 91.8357 88.2613C89.3202 90.6127 86.6133 92.472 83.715 93.8391C80.8168 95.2609 77.8911 95.9718 74.9382 95.9718C72.6961 95.9718 70.8915 95.3703 69.5244 94.1672C68.1573 93.0189 67.4737 91.515 67.4737 89.6557C67.4737 87.3043 68.294 85.281 69.9345 83.5857C71.5204 81.9452 73.5164 80.5234 75.9225 79.3203C78.3286 78.1173 80.7347 77.1056 83.1409 76.2853C85.6017 75.3557 88.1172 74.5081 90.6874 73.7425C93.2575 73.0316 95.691 72.3207 97.9878 71.6098C98.3159 70.5708 98.644 69.3404 98.9721 67.9186C99.3002 66.4421 99.4642 65.075 99.4642 63.8172C99.4642 62.6142 99.2455 61.6572 98.808 60.9463C98.3706 60.1807 97.5776 59.8799 96.4292 60.044C95.8277 60.2627 95.1988 60.6455 94.5426 61.1924C93.9411 61.6845 93.2849 61.9306 92.574 61.9306C92.1912 61.9306 91.8904 61.8212 91.6717 61.6025C91.5076 61.3838 91.4256 61.165 91.4256 60.9463C91.4256 60.5088 91.6717 60.208 92.1638 60.044C93.5856 59.6065 95.0621 58.8409 96.5933 57.7472C98.1792 56.6535 99.5189 55.3684 100.613 53.892C101.761 52.4155 102.335 50.8843 102.335 49.2984C102.335 48.4782 102.062 47.7126 101.515 47.0017C100.968 46.2361 100.148 45.8533 99.0541 45.8533C97.4136 45.8533 96.0464 46.2908 94.9528 47.1657C93.8591 48.0407 92.9021 49.2164 92.0818 50.6929C91.3162 52.1694 90.496 53.7826 89.621 55.5325C88.9648 55.5325 88.6367 55.2864 88.6367 54.7943ZM74.1179 94.4133C76.7427 94.4133 79.5317 93.5657 82.4846 91.8705C85.4376 90.1753 88.2265 87.7691 90.8514 84.6521C93.531 81.5351 95.6637 77.8439 97.2495 73.5784C94.9528 74.2893 92.6013 74.9729 90.1952 75.6291C87.8437 76.34 85.629 77.0783 83.551 77.8439C81.5277 78.5548 79.5043 79.4571 77.481 80.5507C75.403 81.6991 73.7077 83.0936 72.3953 84.7341C71.0282 86.4294 70.3446 88.4253 70.3446 90.7221C70.3446 91.7611 70.6454 92.6361 71.2469 93.347C71.8485 94.0579 72.8054 94.4133 74.1179 94.4133Z" fill="#E5DAC8"/>
<path d="M70.0511 75.875C67.6997 75.875 66.0318 74.9454 65.0475 73.0861C64.0631 71.2268 63.571 69.0668 63.571 66.606C63.571 66.1685 63.571 65.731 63.571 65.2935C63.6257 64.8014 63.6803 64.3366 63.735 63.8991C61.3289 67.0708 58.8681 69.5043 56.3526 71.1995C53.8371 72.9494 50.9662 73.8244 47.7398 73.8244C45.4977 73.8244 43.6384 72.9767 42.1619 71.2815C40.6854 69.641 39.9472 67.2349 39.9472 64.0631C39.9472 61.0008 40.6581 57.501 42.0799 53.5637C43.5017 49.5717 45.0875 45.525 46.8375 41.4237C47.603 39.6738 48.5053 37.5957 49.5443 35.1896C50.5834 32.7835 51.595 30.268 52.5793 27.6431C53.5637 24.9636 54.3839 22.3114 55.0402 19.6865C55.6964 17.0616 56.0245 14.6282 56.0245 12.3861C56.0245 8.55816 54.9855 5.90595 52.9075 4.42946C50.8841 2.95298 48.0132 2.21473 44.2946 2.21473C40.7401 2.21473 37.0489 2.89829 33.221 4.26541C29.393 5.63253 25.7018 7.54649 22.1473 10.0073C18.6475 12.4134 15.4758 15.2297 12.6322 18.4561C9.84325 21.6278 7.60118 25.1003 5.90595 28.8735C4.26541 32.5921 3.44514 36.4474 3.44514 40.4393C3.44514 43.5017 3.99198 46.2633 5.08568 48.7241C6.17937 51.1849 7.76523 53.1262 9.84325 54.548C11.976 55.9698 14.4914 56.6807 17.3897 56.6807C20.0146 56.6807 22.4481 56.0518 24.6901 54.7941C26.9322 53.5363 28.9009 51.8958 30.5961 49.8725C32.2913 47.8491 33.6038 45.6891 34.5334 43.3923C35.5177 41.0409 36.0372 38.8261 36.0919 36.7481C36.1466 34.9982 35.7365 33.5491 34.8615 32.4007C33.9865 31.2523 32.5374 30.6781 30.5141 30.6781C29.4751 30.6781 28.5181 30.7875 27.6431 31.0062C26.8228 31.225 26.3307 31.3343 26.1666 31.3343C25.6745 31.3343 25.4284 31.1429 25.4284 30.7602C25.4284 30.1586 26.0299 29.6391 27.233 29.2016C28.4361 28.7095 29.9399 28.4634 31.7445 28.4634C34.1506 28.4634 35.9279 29.1743 37.0762 30.5961C38.2246 32.0179 38.7988 33.9319 38.7988 36.338C38.7988 38.6348 38.2246 41.0956 37.0762 43.7204C35.9825 46.3453 34.3967 48.8061 32.3187 51.1029C30.2406 53.3996 27.7798 55.2862 24.9362 56.7627C22.0926 58.1845 18.9483 58.8954 15.5031 58.8954C12.4408 58.8954 9.73388 58.1025 7.38244 56.5167C5.03099 54.8761 3.19906 52.6614 1.88662 49.8725C0.628874 47.0835 0 43.9665 0 40.5214C0 35.9825 0.92964 31.6898 2.78892 27.6431C4.6482 23.5418 7.13635 19.8232 10.2534 16.4874C13.3704 13.097 16.8429 10.1714 20.6708 7.71055C24.5534 5.24973 28.4907 3.36311 32.4827 2.05068C36.4747 0.68356 40.2479 0 43.8025 0C46.9195 0 49.7357 0.546848 52.2512 1.64054C54.7667 2.67955 56.7354 4.3201 58.1572 6.56217C59.6337 8.74955 60.3719 11.5932 60.3719 15.093C60.3719 18.7569 59.661 22.5574 58.2392 26.4947C56.8721 30.3774 55.3136 34.2873 53.5637 38.2246C52.1419 41.3416 50.7474 44.4587 49.3803 47.5757C48.0132 50.638 46.8648 53.6184 45.9352 56.5167C45.0602 59.4149 44.6227 62.1765 44.6227 64.8014C44.6227 67.0435 45.0329 68.766 45.8531 69.9691C46.7281 71.1175 47.8491 71.6917 49.2162 71.6917C51.1302 71.6917 53.0442 70.9261 54.9581 69.3949C56.9268 67.8637 58.8407 65.8677 60.7 63.4069C62.614 60.9461 64.4186 58.2939 66.1138 55.4503C67.809 52.552 69.3402 49.7084 70.7073 46.9195C72.1291 44.1306 73.3322 41.6698 74.3165 39.537C75.3555 37.3497 76.1211 35.7911 76.6133 34.8615C77.1054 33.9319 77.7343 32.9749 78.4999 31.9906C79.2655 31.0062 80.1678 30.5141 81.2068 30.5141C81.9724 30.5141 82.4372 30.8148 82.6013 31.4164C82.7653 32.0179 82.8473 32.6194 82.8473 33.221C82.8473 34.5881 82.3278 36.2013 81.2888 38.0606C80.3045 39.8652 79.2928 41.5877 78.2538 43.2283C77.5976 44.3766 76.7226 45.9078 75.629 47.8218C74.5899 49.6811 73.5509 51.7591 72.5119 54.0558C71.4729 56.3526 70.5706 58.6767 69.805 61.0281C69.0941 63.3796 68.7387 65.5396 68.7387 67.5083C68.7387 71.4456 69.9417 73.4142 72.3479 73.4142C73.879 73.4142 75.4376 72.7853 77.0234 71.5276C78.6093 70.3245 80.1404 68.766 81.6169 66.8521C83.1481 64.9381 84.5152 62.9148 85.7183 60.7821C86.976 58.6494 87.9604 56.6534 88.6713 54.7941C89.3275 54.7941 89.6556 55.0402 89.6556 55.5323C88.7259 57.8291 87.6049 60.1805 86.2925 62.5867C85.0347 64.9928 83.5856 67.2075 81.945 69.2308C80.3045 71.1995 78.4999 72.7854 76.5312 73.9884C74.5626 75.2462 72.4026 75.875 70.0511 75.875Z" fill="#E5DAC8"/>
<path d="M614.265 115.987C613.008 115.987 611.887 115.631 610.902 114.92C609.973 114.21 609.508 112.76 609.508 110.573C609.508 109.643 609.562 108.768 609.672 107.948C609.836 107.128 610.027 106.253 610.246 105.323C609.754 106.144 609.07 107.155 608.195 108.358C607.32 109.561 606.336 110.737 605.242 111.885C604.203 113.034 603.11 113.991 601.961 114.756C600.868 115.522 599.829 115.905 598.844 115.905C597.422 115.905 596.274 115.276 595.399 114.018C594.524 112.706 594.087 111.01 594.087 108.932C594.087 106.69 594.606 104.284 595.645 101.714C596.684 99.1439 598.106 96.6831 599.911 94.3316C601.715 91.9802 603.793 90.0662 606.145 88.5897C608.496 87.1132 610.957 86.375 613.527 86.375C614.785 86.375 615.988 86.5937 617.136 87.0312C618.285 87.414 619.296 88.0702 620.171 88.9999C620.554 89.3827 620.745 89.8201 620.745 90.3123C620.745 90.6404 620.609 90.9138 620.335 91.1326C620.062 91.3513 619.706 91.406 619.269 91.2966C618.667 89.3827 617.382 88.4257 615.414 88.4257C614.484 88.4257 613.418 88.7264 612.215 89.328C610.738 90.0936 609.152 91.324 607.457 93.0192C605.817 94.6597 604.258 96.5464 602.782 98.6791C601.36 100.757 600.184 102.862 599.254 104.995C598.325 107.128 597.86 109.069 597.86 110.819C597.86 112.624 598.543 113.526 599.911 113.526C601.114 113.526 602.344 112.952 603.602 111.803C604.914 110.655 606.145 109.233 607.293 107.538C608.496 105.788 609.59 104.066 610.574 102.37C611.558 100.675 612.324 99.3079 612.871 98.2689C613.691 96.7924 614.457 95.562 615.168 94.5777C615.879 93.5934 616.89 93.1012 618.203 93.1012C618.804 93.1012 619.406 93.1832 620.007 93.3473C620.609 93.5114 621.238 93.5387 621.894 93.4293C620.253 95.0699 618.804 97.0112 617.546 99.2532C616.343 101.495 615.414 103.71 614.758 105.897C614.101 108.03 613.773 109.835 613.773 111.311C613.773 112.952 614.32 113.772 615.414 113.772C616.289 113.772 617.218 113.28 618.203 112.296C619.242 111.311 620.226 110.081 621.156 108.604C622.14 107.073 623.042 105.542 623.863 104.011C624.683 102.425 625.339 101.058 625.831 99.9095C626.105 99.9095 626.323 99.9368 626.487 99.9915C626.706 100.046 626.816 100.265 626.816 100.648C626.761 100.866 626.651 101.113 626.487 101.386C626.378 101.605 626.187 102.015 625.913 102.616C625.476 103.491 624.874 104.667 624.109 106.144C623.343 107.62 622.441 109.124 621.402 110.655C620.363 112.131 619.242 113.389 618.039 114.428C616.836 115.467 615.578 115.987 614.265 115.987Z" fill="#E5DAC8"/>
<path d="M566.171 114.51C566.116 115.057 565.788 115.439 565.186 115.658C564.639 115.822 564.093 115.904 563.546 115.904C562.671 115.904 562.015 116.041 561.577 116.314C561.577 115.221 561.878 113.69 562.479 111.721C563.081 109.698 563.792 107.538 564.612 105.241C565.487 102.889 566.362 100.702 567.237 98.6786C568.167 96.6006 568.932 94.9874 569.534 93.839C570.846 91.4329 571.94 89.9017 572.815 89.2455C573.744 88.5893 574.811 88.2612 576.014 88.2612C577.108 88.2612 577.873 88.3159 578.311 88.4252C578.803 88.4799 579.158 88.5073 579.377 88.5073C578.174 89.1635 576.752 90.6947 575.112 93.1008C573.526 95.5069 572.022 98.1865 570.6 101.139C571.037 100.702 571.53 100.347 572.077 100.073C572.678 99.7997 573.362 99.663 574.127 99.663C575.166 99.663 576.069 99.8543 576.834 100.237C577.6 100.565 578.666 100.729 580.033 100.729C581.072 100.729 581.756 100.401 582.084 99.745C582.959 97.7763 583.861 95.8624 584.791 94.0031C585.72 92.0891 586.486 90.5033 587.087 89.2455C587.416 88.5346 587.853 88.0698 588.4 87.8511C589.001 87.6323 589.658 87.5229 590.369 87.5229H594.798C593.868 88.2885 593.075 88.9994 592.419 89.6557C591.818 90.2572 591.216 90.9954 590.615 91.8704C590.068 92.7453 589.357 94.0031 588.482 95.6436C587.771 97.0107 586.923 98.788 585.939 100.975C584.955 103.163 584.217 105.104 583.724 106.799C583.506 107.401 583.314 108.112 583.15 108.932C583.041 109.752 582.986 110.518 582.986 111.229C582.986 112.104 583.123 112.842 583.396 113.444C583.67 114.045 584.134 114.346 584.791 114.346C585.83 114.346 586.896 113.908 587.99 113.033C589.083 112.104 590.15 110.928 591.189 109.506C592.228 108.03 593.185 106.444 594.06 104.749C594.989 103.053 595.782 101.44 596.439 99.909C596.876 99.909 597.149 99.9637 597.259 100.073C597.368 100.182 597.423 100.374 597.423 100.647C596.767 102.288 595.946 104.038 594.962 105.897C594.032 107.702 592.939 109.397 591.681 110.983C590.478 112.569 589.138 113.881 587.662 114.92C586.24 115.904 584.709 116.396 583.068 116.396C581.428 116.396 580.252 115.904 579.541 114.92C578.885 113.936 578.557 112.705 578.557 111.229C578.557 110.463 578.639 109.643 578.803 108.768C579.021 107.893 579.268 107.018 579.541 106.143C579.76 105.487 580.006 104.803 580.279 104.092C580.553 103.327 580.853 102.589 581.182 101.878C580.853 102.315 580.443 102.671 579.951 102.944C579.459 103.163 578.83 103.272 578.064 103.272C577.299 103.272 576.67 103.163 576.178 102.944C575.686 102.725 575.166 102.507 574.619 102.288C574.073 102.069 573.362 101.96 572.487 101.96C571.94 101.96 571.366 102.069 570.764 102.288C570.217 102.507 569.78 102.999 569.452 103.764C568.631 105.678 567.92 107.565 567.319 109.424C566.772 111.283 566.389 112.979 566.171 114.51Z" fill="#E5DAC8"/>
<path d="M539.967 115.74C539.366 115.74 538.628 115.604 537.753 115.33C536.932 115.057 536.194 114.565 535.538 113.854C534.936 113.088 534.636 111.967 534.636 110.491C534.636 109.069 534.936 107.401 535.538 105.487C536.139 103.573 536.878 101.577 537.753 99.4989C538.682 97.4209 539.612 95.4796 540.542 93.675C541.526 91.8157 542.346 90.3119 543.002 89.1635C543.659 87.9604 544.698 87.3589 546.119 87.3589H551.205C550.604 87.851 550.002 88.3706 549.401 88.9174C548.799 89.4642 548.115 90.2845 547.35 91.3782C546.639 92.4719 545.709 94.0851 544.561 96.2178C544.069 97.0928 543.522 98.2411 542.92 99.6629C542.319 101.03 541.717 102.452 541.116 103.928C540.514 105.405 540.022 106.799 539.639 108.112C539.257 109.369 539.065 110.381 539.065 111.147C539.065 112.951 539.667 113.854 540.87 113.854C542.182 113.854 543.768 112.787 545.627 110.655C547.158 108.85 548.662 106.69 550.139 104.174C551.615 101.659 553.01 99.0614 554.322 96.3819C555.689 93.7023 556.892 91.2962 557.931 89.1635C558.533 87.9604 559.599 87.3589 561.13 87.3589H565.642C564.439 88.3432 563.208 89.8197 561.951 91.7883C560.748 93.757 559.408 96.2725 557.931 99.3348C557.549 100.155 557.056 101.194 556.455 102.452C555.853 103.71 555.306 105.049 554.814 106.471C554.377 107.893 554.158 109.315 554.158 110.737C554.158 112.651 554.842 113.608 556.209 113.608C558.068 113.608 559.873 112.322 561.623 109.752C563.372 107.182 565.095 103.901 566.79 99.909C567.228 99.909 567.474 99.9364 567.529 99.9911C567.638 100.046 567.72 100.264 567.775 100.647C567.173 102.124 566.435 103.737 565.56 105.487C564.74 107.182 563.783 108.823 562.689 110.408C561.65 111.994 560.474 113.279 559.162 114.264C557.904 115.248 556.51 115.74 554.978 115.74C553.611 115.74 552.49 115.248 551.615 114.264C550.74 113.225 550.303 111.776 550.303 109.916C550.303 108.44 550.576 106.854 551.123 105.159C550.193 106.799 549.127 108.44 547.924 110.08C546.721 111.721 545.436 113.088 544.069 114.182C542.702 115.221 541.335 115.74 539.967 115.74Z" fill="#E5DAC8"/>
<path d="M497.773 113.854C499.086 113.854 500.672 112.787 502.531 110.655C504.062 108.85 505.566 106.69 507.042 104.174C508.519 101.659 509.913 99.0614 511.226 96.3819C512.593 93.7023 513.796 91.2962 514.835 89.1635C515.437 87.9604 516.503 87.3589 518.034 87.3589H522.546C521.725 88.0151 521.042 88.644 520.495 89.2455C519.948 89.847 519.401 90.6126 518.854 91.5423C518.362 92.4719 517.679 93.8117 516.804 95.5616C515.382 98.4599 514.179 101.003 513.195 103.19C512.21 105.377 511.581 107.182 511.308 108.604C511.253 109.151 511.199 109.561 511.144 109.834C511.089 110.053 511.062 110.354 511.062 110.737C511.062 112.76 511.636 113.772 512.784 113.772C513.386 113.772 514.097 113.526 514.917 113.033C515.737 112.487 516.612 111.694 517.542 110.655C519.073 108.85 520.577 106.69 522.053 104.174C523.53 101.659 524.924 99.0614 526.237 96.3819C527.604 93.7023 528.807 91.2962 529.846 89.1635C530.448 87.9604 531.514 87.3589 533.045 87.3589H537.557C536.736 88.0151 536.053 88.644 535.506 89.2455C534.959 89.847 534.412 90.6126 533.865 91.5423C533.373 92.4719 532.69 93.8117 531.815 95.5616C530.776 97.5849 529.846 99.4442 529.026 101.139C528.26 102.835 527.631 104.366 527.139 105.733C526.92 106.444 526.674 107.264 526.401 108.194C526.182 109.123 526.073 110.026 526.073 110.901C526.073 111.94 526.292 112.924 526.729 113.854C527.221 114.729 527.959 115.303 528.944 115.576C529.819 115.795 530.256 115.932 530.256 115.986C530.256 116.15 530.065 116.26 529.682 116.314C529.354 116.369 528.998 116.396 528.616 116.396C527.139 116.396 525.717 115.877 524.35 114.838C523.038 113.744 522.382 112.022 522.382 109.67C522.382 108.905 522.436 108.139 522.546 107.373C522.71 106.553 522.874 105.815 523.038 105.159C522.108 106.799 521.042 108.44 519.839 110.08C518.636 111.721 517.351 113.088 515.983 114.182C514.616 115.221 513.249 115.74 511.882 115.74C510.515 115.74 509.394 115.248 508.519 114.264C507.644 113.225 507.207 111.776 507.207 109.916C507.207 108.44 507.48 106.854 508.027 105.159C507.043 106.909 505.949 108.604 504.746 110.244C503.543 111.83 502.258 113.143 500.89 114.182C499.523 115.221 498.129 115.74 496.707 115.74C496.16 115.74 495.477 115.604 494.656 115.33C493.836 115.057 493.098 114.565 492.442 113.854C491.84 113.088 491.539 111.967 491.539 110.491C491.539 109.069 491.84 107.401 492.442 105.487C493.043 103.573 493.781 101.577 494.656 99.4989C495.586 97.4209 496.516 95.4796 497.445 93.675C498.43 91.8157 499.25 90.3119 499.906 89.1635C500.562 87.9604 501.601 87.3589 503.023 87.3589H508.109C507.507 87.851 506.906 88.3706 506.304 88.9174C505.703 89.4642 505.019 90.2845 504.254 91.3782C503.543 92.4719 502.613 94.0851 501.465 96.2178C500.972 97.0928 500.426 98.2411 499.824 99.6629C499.223 101.03 498.621 102.452 498.02 103.928C497.418 105.405 496.926 106.799 496.543 108.112C496.16 109.369 495.969 110.381 495.969 111.147C495.969 112.951 496.57 113.854 497.773 113.854ZM499.742 121.4C501.656 121.4 503.843 121.592 506.304 121.974C508.82 122.412 511.581 122.631 514.589 122.631C516.667 122.631 518.69 122.384 520.659 121.892C522.682 121.455 524.159 120.607 525.088 119.349C525.635 119.349 525.909 119.541 525.909 119.924C525.034 121.181 524.104 122.275 523.12 123.205C522.135 124.189 520.932 124.927 519.511 125.419C518.089 125.966 516.257 126.24 514.015 126.24C512.538 126.24 510.87 126.021 509.011 125.583C507.152 125.146 505.265 124.709 503.351 124.271C501.492 123.888 499.742 123.697 498.102 123.697C496.789 123.697 495.613 123.888 494.574 124.271C493.535 124.709 492.715 125.447 492.114 126.486L491.867 126.896C491.703 127.115 491.567 127.224 491.457 127.224C491.348 127.224 491.239 127.142 491.129 126.978C491.02 126.814 490.993 126.623 491.047 126.404C491.649 124.873 492.742 123.642 494.328 122.713C495.914 121.838 497.719 121.4 499.742 121.4Z" fill="#E5DAC8"/>
<path d="M479.99 105.159C479.061 106.799 477.994 108.44 476.791 110.08C475.588 111.721 474.303 113.088 472.936 114.182C471.569 115.221 470.202 115.74 468.835 115.74C468.233 115.74 467.495 115.604 466.62 115.33C465.8 115.057 465.061 114.565 464.405 113.854C463.804 113.088 463.503 111.967 463.503 110.491C463.503 109.069 463.968 107.428 464.897 105.569C465.827 103.71 466.647 102.069 467.358 100.647C466.757 100.647 466.456 100.401 466.456 99.909C466.511 99.745 466.757 99.2255 467.194 98.3505C467.632 97.4756 468.151 96.4365 468.753 95.2335C469.354 94.0304 469.928 92.882 470.475 91.7883C471.077 90.64 471.542 89.765 471.87 89.1635C472.526 87.9604 473.565 87.3589 474.987 87.3589H480.072C479.143 88.0698 478.295 88.8627 477.529 89.7377C476.819 90.5579 475.916 92.0891 474.823 94.3312C474.823 94.3312 474.631 94.714 474.248 95.4796C473.866 96.2451 473.373 97.2295 472.772 98.4325C472.225 99.5809 471.651 100.757 471.049 101.96C470.503 103.163 470.038 104.174 469.655 104.995C468.944 106.526 468.479 107.756 468.26 108.686C468.042 109.561 467.932 110.381 467.932 111.147C467.932 112.951 468.534 113.854 469.737 113.854C471.049 113.854 472.635 112.787 474.494 110.655C476.026 108.85 477.529 106.69 479.006 104.174C480.482 101.659 481.877 99.0614 483.189 96.3819C484.556 93.7023 485.76 91.2962 486.799 89.1635C487.4 87.9604 488.466 87.3589 489.998 87.3589H494.509C493.689 88.0151 493.005 88.644 492.458 89.2455C491.966 89.847 491.447 90.6126 490.9 91.5423C490.353 92.4719 489.615 93.8117 488.685 95.5616C486.498 99.5536 484.912 102.944 483.928 105.733C483.709 106.444 483.49 107.264 483.271 108.194C483.107 109.123 483.025 110.026 483.025 110.901C483.025 111.94 483.244 112.924 483.682 113.854C484.174 114.729 484.912 115.303 485.896 115.576C486.771 115.795 487.209 115.932 487.209 115.986C487.209 116.15 487.017 116.26 486.634 116.314C486.306 116.369 485.951 116.396 485.568 116.396C484.092 116.396 482.67 115.877 481.303 114.838C479.99 113.744 479.334 112.022 479.334 109.67C479.334 108.905 479.389 108.139 479.498 107.373C479.662 106.553 479.826 105.815 479.99 105.159Z" fill="#E5DAC8"/>
<path d="M452.2 83.5035C450.833 83.5035 449.384 83.3121 447.853 82.9293C446.377 82.5465 444.873 82.1637 443.342 81.7809C441.865 81.3981 440.471 81.2068 439.158 81.2068C438.064 81.2068 437.053 81.3981 436.123 81.7809C435.193 82.1091 434.428 82.7926 433.826 83.8316L433.58 84.2418C433.416 84.4605 433.28 84.5699 433.17 84.5699C433.061 84.5699 432.951 84.4878 432.842 84.3238C432.733 84.1597 432.705 83.9683 432.76 83.7496C433.362 82.2184 434.455 81.0154 436.041 80.1404C437.627 79.2108 439.432 78.7459 441.455 78.7459C442.877 78.7459 444.681 78.9373 446.869 79.3201C449.111 79.7029 451.134 79.8943 452.939 79.8943C454.087 79.8943 455.372 79.8396 456.794 79.7303C458.27 79.5662 459.665 79.2108 460.977 78.6639C462.344 78.0624 463.383 77.1054 464.094 75.793C464.641 75.793 464.915 75.9844 464.915 76.3672C463.876 78.828 462.454 80.6326 460.649 81.7809C458.845 82.9293 456.028 83.5035 452.2 83.5035ZM419.554 115.74C418.952 115.74 418.46 115.74 418.077 115.74C417.64 115.795 417.202 115.932 416.765 116.15C418.788 112.268 420.702 108.385 422.507 104.502C424.311 100.565 426.143 96.8466 428.002 93.3468C429.096 91.3781 429.998 90.011 430.709 89.2454C431.475 88.4251 432.487 88.015 433.744 88.015C434.182 88.015 434.647 88.097 435.139 88.2611C435.631 88.3705 436.123 88.4251 436.615 88.4251C436.943 88.4251 437.189 88.3978 437.354 88.3431C436.588 88.7806 435.604 89.8743 434.401 91.6242C433.198 93.3194 431.967 95.2881 430.709 97.5301C429.452 99.7722 428.331 101.878 427.346 103.846C428.385 102.588 429.452 101.331 430.545 100.073C431.694 98.8152 432.951 97.6122 434.319 96.4638C435.522 95.4248 436.779 94.3037 438.092 93.1007C439.459 91.8429 440.799 90.7766 442.111 89.9016C443.424 89.0267 444.572 88.5892 445.556 88.5892C445.939 88.5892 446.185 88.6165 446.295 88.6712C447.334 89.1087 447.853 89.8196 447.853 90.8039C447.853 91.132 447.716 91.6242 447.443 92.2804C446.732 94.1397 445.802 96.0537 444.654 98.0223C443.56 99.9363 442.521 101.878 441.537 103.846C442.357 102.862 443.369 101.659 444.572 100.237C445.83 98.8152 447.087 97.5575 448.345 96.4638C449.548 95.3701 451.079 94.2217 452.939 93.0187C454.798 91.8156 456.63 90.7766 458.435 89.9016C460.239 89.0267 461.688 88.5892 462.782 88.5892C463.165 88.5892 463.438 88.6165 463.602 88.6712C463.602 88.6712 463.301 89.2181 462.7 90.3118C462.098 91.3508 461.333 92.7452 460.403 94.4951C459.528 96.1904 458.626 98.0223 457.696 99.991C456.767 101.905 455.919 103.764 455.153 105.569C454.443 107.319 453.978 108.795 453.759 109.998C453.595 110.709 453.513 111.365 453.513 111.967C453.513 112.842 453.677 113.416 454.005 113.689C454.333 113.963 454.689 114.1 455.071 114.1C456.165 114.1 457.231 113.635 458.27 112.705C459.364 111.776 460.43 110.6 461.469 109.178C462.509 107.701 463.438 106.143 464.258 104.502C465.133 102.862 465.872 101.331 466.473 99.9089C467.129 99.9089 467.457 100.155 467.457 100.647C466.856 102.124 466.09 103.764 465.161 105.569C464.286 107.319 463.274 108.987 462.126 110.572C460.977 112.158 459.72 113.471 458.352 114.51C456.985 115.549 455.509 116.068 453.923 116.068C452.775 116.068 451.681 115.685 450.642 114.92C449.658 114.154 449.165 112.732 449.165 110.654C449.165 108.412 449.685 106.17 450.724 103.928C451.818 101.686 452.939 99.6355 454.087 97.7762C454.634 96.8466 454.907 96.1083 454.907 95.5615C454.907 94.9053 454.579 94.5772 453.923 94.5772C453.376 94.5772 452.611 94.8506 451.626 95.3974C450.697 95.9443 449.521 96.9013 448.099 98.2684C447.224 99.0887 446.185 100.237 444.982 101.714C443.834 103.135 442.658 104.694 441.455 106.389C440.252 108.084 439.213 109.752 438.338 111.393C437.463 113.033 436.889 114.482 436.615 115.74C435.795 115.74 435.139 115.412 434.647 114.756C434.154 114.045 433.908 113.225 433.908 112.295C433.908 112.131 433.908 111.967 433.908 111.803C433.908 111.639 433.936 111.447 433.99 111.229C434.264 109.533 434.701 108.112 435.303 106.963C435.904 105.76 436.588 104.366 437.354 102.78C437.736 102.069 438.174 101.249 438.666 100.319C439.158 99.3347 439.596 98.4051 439.978 97.5301C440.361 96.6005 440.553 95.8349 440.553 95.2334C440.553 94.6865 440.334 94.4131 439.896 94.4131C439.404 94.4131 438.748 94.6592 437.928 95.1514C437.162 95.6435 436.424 96.2177 435.713 96.8739C435.002 97.4755 434.455 97.9403 434.072 98.2684C432.705 99.5808 431.037 101.467 429.069 103.928C427.155 106.389 425.049 109.889 422.753 114.428C422.425 115.029 422.042 115.412 421.604 115.576C421.167 115.685 420.483 115.74 419.554 115.74Z" fill="#E5DAC8"/>
<path d="M385.829 101.745C385.897 103.488 386.444 104.889 387.469 105.949C388.529 107.008 390.084 107.538 392.135 107.538C393.263 107.538 394.271 107.333 395.159 106.923C396.048 106.479 396.868 105.829 397.62 104.975C400.525 106.103 403.926 107.077 407.822 107.897C406.694 110.529 404.781 112.579 402.08 114.049C399.415 115.519 395.946 116.253 391.673 116.253C385.966 116.253 381.745 114.92 379.01 112.255C376.276 109.589 374.909 106.085 374.909 101.745C374.909 97.4043 376.276 93.901 379.01 91.2351C381.745 88.5693 385.966 87.2363 391.673 87.2363C395.946 87.2363 399.415 87.9712 402.08 89.4408C404.781 90.9105 406.694 92.9611 407.822 95.5928C404.781 96.2422 401.38 97.2163 397.62 98.515C396.868 97.6606 396.048 97.0283 395.159 96.6182C394.271 96.1739 393.263 95.9517 392.135 95.9517C390.084 95.9517 388.529 96.4815 387.469 97.541C386.444 98.6005 385.897 100.002 385.829 101.745Z" fill="#E5DAC8"/>
<path d="M361.054 87.7485C360.883 92.7043 360.798 97.1816 360.798 101.18C360.798 105.111 360.883 109.588 361.054 114.612H350.544L351.108 96.874L343.265 114.612H328.961C329.166 110.101 329.269 105.624 329.269 101.18C329.269 96.669 329.166 92.1917 328.961 87.7485H339.061L338.548 105.948L346.392 87.7485H361.054Z" fill="#E5DAC8"/>
<path d="M313.716 87.2363C315.937 87.2363 317.937 87.8686 319.714 89.1332C321.491 90.3978 322.875 92.1238 323.866 94.3112C324.858 96.4644 325.353 98.8397 325.353 101.437C325.353 104.001 324.858 106.427 323.866 108.717C322.875 110.973 321.474 112.801 319.663 114.203C317.885 115.57 315.852 116.253 313.562 116.253C310.896 116.253 308.606 115.707 306.692 114.613C304.812 113.485 303.411 111.759 302.488 109.435C302.488 111.383 302.556 114.51 302.693 118.817C302.83 122.986 302.898 125.926 302.898 127.635H291.312C291.517 121.278 291.62 114.63 291.62 107.692C291.62 100.754 291.517 94.1061 291.312 87.749H301.155L302.642 94.1574C303.599 91.7649 305.034 90.0218 306.948 88.9281C308.862 87.8003 311.118 87.2363 313.716 87.2363ZM308.23 107.025C309.768 107.025 311.05 106.547 312.075 105.59C313.135 104.599 313.664 103.317 313.664 101.745C313.664 100.002 313.186 98.5834 312.229 97.4897C311.272 96.396 309.973 95.8492 308.333 95.8492C306.453 95.8492 305.034 96.3106 304.077 97.2334C303.12 98.122 302.642 99.6258 302.642 101.745C302.642 102.941 302.95 103.949 303.565 104.77C304.18 105.556 304.915 106.137 305.769 106.513C306.624 106.854 307.444 107.025 308.23 107.025Z" fill="#E5DAC8"/>
<path d="M270.071 116.253C264.226 116.253 259.92 114.92 257.151 112.255C254.417 109.555 253.05 106.017 253.05 101.642C253.05 97.3701 254.417 93.901 257.151 91.2351C259.92 88.5693 264.226 87.2363 270.071 87.2363C274.001 87.2363 277.282 87.8857 279.914 89.1845C282.58 90.4491 284.545 92.175 285.81 94.3624C287.074 96.5156 287.706 98.9423 287.706 101.642C287.706 106.051 286.237 109.589 283.297 112.255C280.392 114.92 275.983 116.253 270.071 116.253ZM270.276 107.538C272.497 107.538 274.155 107.008 275.249 105.949C276.342 104.889 276.889 103.471 276.889 101.694C276.889 100.019 276.342 98.6518 275.249 97.5922C274.155 96.4986 272.497 95.9517 270.276 95.9517C268.054 95.9517 266.431 96.4815 265.405 97.541C264.38 98.6005 263.867 99.9847 263.867 101.694C263.867 103.471 264.38 104.889 265.405 105.949C266.431 107.008 268.054 107.538 270.276 107.538Z" fill="#E5DAC8"/>
<path d="M241.226 101.847C247.07 101.847 249.992 103.71 249.992 107.435C249.992 110.101 248.967 112.152 246.916 113.587C244.9 115.023 241.243 115.74 235.945 115.74H218.617C218.788 111.844 218.873 107.179 218.873 101.744C218.873 96.3101 218.788 91.6448 218.617 87.7485H229.229V87.7998H235.894C239.107 87.7998 241.619 88.0732 243.43 88.6201C245.276 89.1327 246.575 89.8847 247.327 90.8758C248.078 91.867 248.454 93.1316 248.454 94.6696C248.454 98.1215 246.045 100.514 241.226 101.847ZM229.229 94.8234V98.4121H233.126C234.698 98.4121 235.809 98.2753 236.458 98.0019C237.107 97.6943 237.432 97.1646 237.432 96.4126C237.432 95.8316 237.09 95.4215 236.407 95.1822C235.757 94.943 234.664 94.8234 233.126 94.8234H229.229ZM233.126 108.665C235.074 108.665 236.407 108.529 237.124 108.255C237.842 107.948 238.201 107.418 238.201 106.666C238.201 106.017 237.825 105.538 237.073 105.231C236.321 104.923 235.005 104.769 233.126 104.769H229.229V108.665H233.126Z" fill="#E5DAC8"/>
<path d="M197.376 116.253C191.531 116.253 187.225 114.92 184.456 112.255C181.722 109.555 180.355 106.017 180.355 101.642C180.355 97.3701 181.722 93.901 184.456 91.2351C187.225 88.5693 191.531 87.2363 197.376 87.2363C201.306 87.2363 204.587 87.8857 207.219 89.1845C209.885 90.4491 211.85 92.175 213.115 94.3624C214.379 96.5156 215.012 98.9423 215.012 101.642C215.012 106.051 213.542 109.589 210.603 112.255C207.697 114.92 203.289 116.253 197.376 116.253ZM197.581 107.538C199.802 107.538 201.46 107.008 202.554 105.949C203.647 104.889 204.194 103.471 204.194 101.694C204.194 100.019 203.647 98.6518 202.554 97.5922C201.46 96.4986 199.802 95.9517 197.581 95.9517C195.359 95.9517 193.736 96.4815 192.71 97.541C191.685 98.6005 191.172 99.9847 191.172 101.694C191.172 103.471 191.685 104.889 192.71 105.949C193.736 107.008 195.359 107.538 197.581 107.538Z" fill="#E5DAC8"/>
<path d="M160.947 115.74H150.028C150.198 111.81 150.284 107.145 150.284 101.744C150.284 96.3101 150.198 91.6448 150.028 87.7485H178.84C178.805 88.9448 178.788 91.3372 178.788 94.9259V97.6943H160.947V115.74Z" fill="#E5DAC8"/>
</svg>
