<svg width="25" height="24" viewBox="0 0 25 24" fill="none" xmlns="http://www.w3.org/2000/svg">
<g clip-path="url(#clip0_4505_148)">
<path d="M7.53008 0.0840168C6.25328 0.144217 5.38138 0.348017 4.61908 0.647417C3.83028 0.954917 3.16158 1.36742 2.49628 2.03512C1.83108 2.70282 1.42128 3.37192 1.11608 4.16212C0.820682 4.92592 0.620482 5.79862 0.564082 7.07612C0.507682 8.35362 0.495182 8.76432 0.501482 12.0231C0.507682 15.2817 0.522082 15.6902 0.583982 16.9704C0.644982 18.2469 0.847982 19.1186 1.14748 19.8811C1.45548 20.67 1.86748 21.3384 2.53548 22.0039C3.20338 22.6694 3.87198 23.0782 4.66398 23.3839C5.42718 23.6789 6.30008 23.88 7.57738 23.9359C8.85468 23.9919 9.26578 24.0049 12.5236 23.9986C15.7814 23.9924 16.1916 23.9779 17.4714 23.9172C18.7514 23.8565 19.6184 23.652 20.3812 23.3539C21.1701 23.0453 21.839 22.6339 22.504 21.9658C23.169 21.2976 23.5785 20.628 23.8835 19.8374C24.1792 19.0742 24.3801 18.2014 24.4355 16.925C24.4915 15.6441 24.5047 15.2352 24.4985 11.977C24.4922 8.71872 24.4775 8.31022 24.4168 7.03052C24.3561 5.75082 24.1528 4.88182 23.8535 4.11882C23.5451 3.32992 23.1335 2.66202 22.4659 1.99602C21.7982 1.33002 21.128 0.920817 20.3378 0.616517C19.574 0.321017 18.7017 0.119717 17.4244 0.0645168C16.1471 0.00931678 15.736 -0.00498321 12.477 0.00141679C9.21798 0.00761679 8.80998 0.0216168 7.53008 0.0840168ZM7.67028 21.7771C6.50028 21.7262 5.86498 21.5318 5.44158 21.3691C4.88098 21.1531 4.48158 20.892 4.05968 20.4741C3.63768 20.0563 3.37858 19.6555 3.15968 19.0961C2.99528 18.6727 2.79728 18.0381 2.74258 16.8681C2.68308 15.6036 2.67058 15.2239 2.66358 12.0201C2.65658 8.81642 2.66888 8.43712 2.72428 7.17212C2.77428 6.00312 2.96988 5.36712 3.13228 4.94392C3.34828 4.38262 3.60848 3.98392 4.02728 3.56232C4.44608 3.14062 4.84568 2.88092 5.40558 2.66202C5.82858 2.49692 6.46308 2.30062 7.63258 2.24492C8.89808 2.18492 9.27728 2.17292 12.4806 2.16592C15.6839 2.15892 16.0641 2.17092 17.3301 2.22672C18.4991 2.27752 19.1354 2.47122 19.5581 2.63472C20.1189 2.85072 20.5181 3.11012 20.9397 3.52972C21.3614 3.94912 21.6213 4.34732 21.8402 4.90842C22.0055 5.33012 22.2019 5.96442 22.2571 7.13472C22.3173 8.40022 22.331 8.77972 22.3367 11.9827C22.3425 15.1857 22.3312 15.5661 22.2757 16.8307C22.2247 18.0007 22.0307 18.6362 21.8677 19.0601C21.6517 19.6205 21.3914 20.0201 20.9723 20.4415C20.5533 20.863 20.1542 21.1226 19.594 21.3415C19.1716 21.5064 18.5363 21.7032 17.3678 21.7589C16.1022 21.8184 15.723 21.8309 12.5185 21.8379C9.31398 21.8449 8.93578 21.8319 7.67028 21.7771ZM17.453 5.58642C17.4535 5.87125 17.5384 6.14954 17.697 6.38609C17.8557 6.62265 18.0809 6.80684 18.3443 6.91537C18.6076 7.02391 18.8972 7.05191 19.1765 6.99583C19.4557 6.93975 19.7121 6.80212 19.9131 6.60034C20.1141 6.39855 20.2508 6.14169 20.3058 5.86222C20.3609 5.58276 20.3318 5.29325 20.2223 5.03032C20.1128 4.76739 19.9277 4.54284 19.6906 4.38508C19.4534 4.22731 19.1748 4.14342 18.89 4.14402C18.5082 4.14481 18.1423 4.29721 17.8728 4.56769C17.6034 4.83818 17.4523 5.20461 17.453 5.58642ZM6.33848 12.012C6.34518 15.4152 9.10908 18.1677 12.5115 18.1613C15.9141 18.1548 18.6685 15.3912 18.6621 11.988C18.6556 8.58482 15.8911 5.83152 12.4881 5.83822C9.08508 5.84492 6.33208 8.60922 6.33848 12.012ZM8.49998 12.0077C8.49842 11.2166 8.73149 10.4428 9.16971 9.78412C9.60793 9.12546 10.2316 8.61154 10.9619 8.30735C11.6922 8.00315 12.4963 7.92234 13.2726 8.07514C14.0488 8.22794 14.7623 8.60749 15.3228 9.16578C15.8833 9.72408 16.2657 10.436 16.4216 11.2117C16.5774 11.9873 16.4998 12.7917 16.1985 13.5232C15.8972 14.2547 15.3858 14.8804 14.7289 15.3213C14.072 15.7621 13.2991 15.9982 12.508 15.9998C11.9827 16.0009 11.4623 15.8985 10.9766 15.6985C10.4908 15.4985 10.0492 15.2047 9.67706 14.834C9.30487 14.4633 9.00935 14.0229 8.80739 13.5379C8.60542 13.053 8.50097 12.533 8.49998 12.0077Z" fill="#E7EBE9"/>
</g>
<defs>
<clipPath id="clip0_4505_148">
<rect width="24" height="24" fill="white" transform="translate(0.5)"/>
</clipPath>
</defs>
</svg>
