<svg width="25" height="24" viewBox="0 0 25 24" fill="none" xmlns="http://www.w3.org/2000/svg">
<g clip-path="url(#clip0_4505_150)">
<path d="M13.025 0C14.3 0 15.65 0 16.925 0C17 1.5 17.525 3.075 18.65 4.2C19.775 5.325 21.35 5.85 22.925 6V10.05C21.5 9.975 20 9.675 18.725 9.075C18.125 8.85 17.6 8.475 17.075 8.175C17.075 11.1 17.075 14.025 17.075 16.95C17 18.375 16.55 19.725 15.725 20.925C14.45 22.875 12.125 24.075 9.8 24.15C8.375 24.225 6.95 23.85 5.75 23.1C3.725 21.75 2.3 19.575 2.075 17.25C2.075 16.725 2.075 16.275 2.075 15.75C2.225 13.875 3.2 12 4.625 10.8C6.275 9.375 8.6 8.7 10.775 9.075C10.775 10.575 10.7 12 10.7 13.5C9.725 13.2 8.525 13.275 7.7 13.875C7.1 14.25 6.575 14.925 6.35 15.6C6.125 16.125 6.2 16.65 6.2 17.175C6.425 18.825 8 20.175 9.725 20.025C10.85 20.025 11.9 19.35 12.5 18.45C12.725 18.15 12.875 17.775 12.875 17.4C12.95 15.6 12.95 13.8 12.95 12.075C13.025 8.025 13.025 4.05 13.025 0Z" fill="#E7EBE9"/>
</g>
<defs>
<clipPath id="clip0_4505_150">
<rect width="24" height="24" fill="white" transform="translate(0.5)"/>
</clipPath>
</defs>
</svg>
