<svg width="25" height="17" viewBox="0 0 25 17" fill="none" xmlns="http://www.w3.org/2000/svg">
<path d="M23.998 2.68592C23.8624 2.1752 23.595 1.70906 23.2226 1.33419C22.8502 0.959312 22.3858 0.688863 21.876 0.549922C20.005 0.044922 12.5 0.0449219 12.5 0.0449219C12.5 0.0449219 4.995 0.044922 3.123 0.549922C2.61341 0.689108 2.14929 0.959655 1.77708 1.3345C1.40486 1.70935 1.13759 2.17536 1.002 2.68592C0.5 4.56992 0.5 8.49992 0.5 8.49992C0.5 8.49992 0.5 12.4299 1.002 14.3139C1.13759 14.8246 1.40498 15.2908 1.77739 15.6657C2.14981 16.0405 2.61418 16.311 3.124 16.4499C4.995 16.9549 12.5 16.9549 12.5 16.9549C12.5 16.9549 20.005 16.9549 21.877 16.4499C22.3869 16.3111 22.8513 16.0407 23.2237 15.6658C23.5961 15.2909 23.8635 14.8247 23.999 14.3139C24.5 12.4299 24.5 8.49992 24.5 8.49992C24.5 8.49992 24.5 4.56992 23.998 2.68592ZM10.045 12.0679V4.93192L16.318 8.49992L10.045 12.0679Z" fill="#E7EBE9"/>
</svg>
