<svg width="168" height="35" viewBox="0 0 168 35" fill="none" xmlns="http://www.w3.org/2000/svg">
<g clip-path="url(#clip0_4505_117)">
<path d="M151.807 25.4643C152.367 23.7876 151.2 22.2506 149.753 21.3657C148.82 21.3657 147.607 21.3657 146.813 20.7136C146.207 19.8753 145.647 19.2698 145.413 18.2451C146.16 17.1273 145.273 15.9164 146.3 14.8451C147.42 14.0068 148.493 13.6342 149.613 12.8424C150.033 12.5164 149.613 12.1903 149.753 11.7712C150.873 11.2123 150.36 9.95473 151.48 9.30267C152.74 8.97664 152.133 8.60404 151.713 7.90541C152.32 6.88075 152.227 5.71637 152.6 4.55198C151.293 3.85335 151.06 1.89719 149.613 1.57116C148.913 0.406779 146.953 0.453354 145.787 0.639655C144.76 1.33829 146.16 1.75746 145.133 2.54924C144.34 4.22596 145.553 3.89993 146.393 4.73829C147.7 5.01774 148.027 4.73829 148.633 6.13555C148.12 7.29993 149.053 9.02322 147.887 9.72185C147.887 10.3739 147.793 10.6534 147.093 10.4671C144.807 11.7246 147.28 8.23144 146.72 7.48623C145.507 5.85609 146.393 6.36842 146.627 5.39034C145.413 5.06431 143.407 3.7602 143.5 5.94925C142.987 5.94925 142.193 6.46157 142.38 7.02048C142.52 7.39308 143.267 7.71911 142.24 7.95199C141.96 7.62596 142.147 7.29993 141.587 7.39308C142.66 8.97664 141.493 8.51089 141.773 10.2808C142.053 12.0506 141.167 13.8205 142.24 15.5438C142.567 16.4753 142.007 16.5218 141.913 17.2671C141.867 17.7794 142.147 18.5712 141.54 18.8972C141.96 19.9684 140.933 20.5739 141.54 21.5054C140.887 22.0177 141.353 22.2506 141.68 22.8561C141.54 23.2753 140.933 23.6013 141.4 24.0205C141.4 24.7657 140.887 25.5109 141.12 26.2561C141.633 26.5821 141.54 26.815 141.54 27.4205C141.633 27.9794 142.1 28.1657 141.213 28.5383C141.213 29.2369 141.867 29.9356 141.68 30.6808C140.28 31.8917 143.5 32.2177 141.867 33.0561C141.727 33.3356 140.887 34.2205 141.353 34.4999C142.1 34.2671 143.267 34.5931 142.613 33.615C144.48 31.2862 148.54 31.8451 151.013 30.7273C151.06 30.0287 151.853 29.1438 151.713 28.352C152.32 28.0725 152.04 27.6068 151.9 27.0945C151.713 26.2561 154.373 24.4862 151.9 25.4643H151.807ZM148.96 27.6068C148.68 28.352 143.827 29.5164 145.18 27.8397C144.2 24.4862 149.567 24.5794 148.96 27.6068ZM95.1533 20.7136C94.9667 22.0177 95.34 22.6698 94.8733 23.8342C95.48 24.4862 94.9667 25.0917 94.5933 25.604C95.48 26.3958 94.78 27.0479 94.0333 27.6534C93.8 27.9794 93.5667 29.0506 92.96 28.5849C92.5867 27.6999 93.3333 26.5821 92.6333 25.604C92.12 24.4397 92.96 23.1355 92.12 22.2506C93.24 21.7849 92.96 21.2725 92.3533 20.3876C92.6333 19.6424 92.2133 19.689 91.9333 18.8972C93.0067 16.7547 92.6333 16.8945 90.9067 15.3109C89.18 15.7766 91.3267 16.615 89.7867 17.3602C89.8333 18.9438 88.2933 19.7355 87.78 21.1328C87.78 22.4369 87.78 24.7657 85.8667 24.4397C84.2333 25.9766 84 21.3191 84.4667 20.341C83.5333 19.6424 84.3267 18.7109 83.2533 18.152C83.6267 17.0342 82.5533 16.0561 83.2533 15.1246C82.88 14.0534 82.2267 11.9575 80.8267 11.8177C80.22 12.0506 80.36 12.5164 80.4533 13.0287C81.9467 13.4479 80.5933 14.1465 80.4533 14.8451C81.2 16.2424 79.6133 17.2671 79.8467 18.5246C79.6133 19.5027 80.4067 20.4342 80.78 21.3191C80.78 21.9712 80.6867 22.5301 81.06 23.0424C79.7533 23.5547 80.36 24.6725 80.2667 25.7903C82.2733 28.3054 76.02 30.3547 76.6733 27.0013C76.86 26.3958 77.1867 25.9766 76.8133 25.3712C77.28 24.7191 77.56 24.2068 76.6733 23.9273C77.0467 22.9027 76.6733 22.3903 76.9533 21.4588C76.3467 20.6205 76.0667 20.015 76.5333 19.0835C75.5067 15.4972 77.7933 11.9575 76.8133 8.60404C80.0333 6.74103 76.9067 3.94651 83.0667 7.29993C84.28 8.69719 82.9733 10.5602 84.98 10.9328C86.1 11.9575 85.26 13.6808 86.1 14.7986C86.94 15.2643 86.1 15.9164 86.4733 16.289C88.2467 15.8232 87.8733 13.215 88.8533 11.9109C88.62 10.9794 88.62 10.8397 89.6 10.5602C89.88 9.76842 90.16 8.46431 90.9067 7.90541C92.2133 6.92733 92.3067 6.50815 93.66 7.53281C93.8933 8.41774 92.96 8.46431 93.6133 9.11637C93.9867 10.4671 94.4067 11.678 93.8467 12.7958C94.3133 12.9821 94.5 13.0753 94.08 13.5876C93.7067 14.1931 93.2867 13.5876 93.0533 14.0068C93.4267 14.5191 93.9867 15.078 94.1267 15.6835C95.1067 15.6369 95.2933 15.4972 95.0133 16.7082C95.48 17.4999 95.2 17.3136 94.8733 18.0588C95.2933 19.1766 96.04 19.5958 95.06 20.6205L95.1533 20.7136ZM58.7533 13.7273C58.8467 15.5438 58.2867 17.1739 58.0533 18.8506C58.66 19.9219 58.2867 20.015 58.1467 21.1328C58.5667 21.9246 58.0533 22.9492 58.2867 23.9739C57.8667 25.4643 57.4467 27.3273 56.8867 28.5849C56.14 30.541 53.9467 29.7958 54.9267 27.9794C54.0867 27.4671 54.9267 26.2095 54.3667 25.4177C52.2667 23.741 51.38 19.8753 48.4867 19.5492C47.74 20.4342 47.9267 22.5301 48.44 23.5547C47.8333 25.3712 47.2267 27.7931 44.8933 28.3054C44.6133 28.026 44.1 27.9328 43.7733 27.6999C43.96 26.2561 44.1933 24.6725 44.5667 23.1821C44.0533 21.4588 44.5667 20.2013 44.0067 18.478C43.3533 17.5465 44.8 16.5218 44.1 15.3575C44.8467 13.7739 43.96 12.4232 44.52 10.7931C44.94 10.4205 45.1733 10.141 45.1733 9.53555C45.36 9.25609 46.34 9.53555 46.2 9.02322C44.8467 8.04514 45.78 7.20678 46.48 8.65061C47.88 8.79034 48.2533 10.1876 49.14 10.8862C49.6067 11.4917 49.28 12.5164 50.2133 12.8424C51.52 12.8424 50.5867 12.889 50.68 13.8205C51.2867 14.426 51.8933 15.0314 52.6867 15.4972C53.34 16.4287 53.9 19.3164 55.3467 18.7575C54.2733 17.7794 55.8133 17.2205 55.44 16.0561C55.7667 15.4972 55.44 15.0314 55.2533 14.5657C55.8133 13.5876 55.6733 12.4698 55.58 11.3986C56.6533 11.5383 56.7 11.0725 57.4933 10.4205C59.4067 10.6068 57.4933 12.889 58.8933 13.7739L58.7533 13.7273ZM167.767 23.9273C168.747 22.4369 166.367 22.4369 166.413 20.8999C165.153 20.8534 164.173 19.4095 163.147 18.7575C162.26 18.8972 161.327 18.0123 161.98 17.1739C162.073 16.4287 162.4 16.289 163.1 16.4287C162.633 15.0314 163.007 13.4479 163.147 12.0506C161.093 12.7027 160.673 9.30267 158.667 9.72185C158.48 8.74377 158.247 8.83692 157.453 9.39582C157.033 9.06979 157.267 8.60404 156.613 8.51089C155.027 8.60404 154.187 9.86157 152.973 10.2808C154.093 10.3273 153.207 11.026 152.74 11.3986C151.667 14.7986 154.887 12.6095 154.093 13.9136C152.133 13.7273 154.093 16.1492 155.26 15.6369C155.633 15.0314 156.38 14.3328 157.22 14.5191C157.827 14.9383 157.36 15.8232 157.78 16.4753C157.173 17.0808 157.64 18.1054 156.567 18.152C157.173 18.478 157.267 19.3629 156.567 19.5958C156.193 19.7821 156.473 20.015 156.847 19.8287C156.987 19.7821 157.033 19.3629 157.36 19.6424C157.64 19.8753 157.267 20.1082 157.267 20.341C157.64 20.8999 157.267 21.226 157.08 21.6917C157.827 22.4369 156.987 23.741 156.613 24.4397C157.453 25.4643 155.82 26.815 157.267 27.5136C157.453 28.1191 158.527 29.8424 156.94 29.0972C158.107 29.9356 155.82 32.2177 158.527 30.9136C158.993 32.3109 159.927 30.7739 160.627 30.4479C161.093 30.6342 160.767 31.5657 161.373 31.4725C161.98 31.0999 162.867 29.9356 163.8 30.2616C164.267 29.3301 165.013 28.4451 165.993 28.1191C166.367 27.5136 166.787 27.4671 167.3 27.3273C167.72 26.3027 167.72 25.0451 167.673 23.9273H167.767ZM164.173 25.8835C163.287 25.8835 162.307 27.3273 161.7 26.1164C160.3 27.141 160.393 25.604 160.813 24.4862C161.093 23.4616 162.12 24.3465 162.773 23.6945C163.333 24.9054 164.687 24.3465 164.127 25.9301L164.173 25.8835ZM128.52 24.3465C127.493 25.9766 128.007 25.604 127.493 27.4205C126.793 28.1657 125.533 29.6095 125.113 27.8397C124.507 26.0698 125.02 25.8369 123.247 23.9273C122.78 23.0424 123.2 22.2506 122.407 21.5986C122.547 21.0862 122.64 20.0616 121.753 20.015C121.147 19.689 121.847 19.2698 121.847 18.8506C121.753 18.1054 120.96 16.8945 120.307 16.4287C118.767 16.4287 118.86 17.2671 118.58 18.478C119 19.3629 118.067 19.6424 118.347 20.4808C118.907 20.8534 119 21.3191 118.58 22.0177C119.187 24.3931 117.833 24.4397 117.74 26.2561C117.6 26.6753 116.48 27.6068 117.367 27.8397C116.807 28.9575 116.247 30.3547 115.407 31.2397C113.96 31.3794 112.56 32.1246 111.16 31.7986C109.387 32.5438 108.173 30.9602 110.133 30.0287C111.02 28.352 113.027 29.3301 113.82 27.8862C115.453 26.2561 114.66 23.5082 115.08 21.3657C116.153 20.4808 115.173 18.6177 116.153 18.152C115.22 17.0342 116.76 17.0808 116.48 16.1027C116.853 15.078 116.013 13.9136 116.9 13.1218C117.647 12.2835 117.18 11.6314 117.413 10.7931C119.047 9.34925 120.54 7.25336 122.873 7.71911C124.833 10.2342 124.273 13.6342 126.187 16.4287C125.347 17.9191 125.72 17.9191 126.933 17.4999C125.58 18.6643 127.353 19.7821 126.887 21.226C126.793 22.1575 127.4 22.0177 127.68 22.5301C127.587 23.3218 127.913 23.6479 128.473 24.2999L128.52 24.3465ZM29.1667 7.1602C29.7733 6.2287 28.42 6.0424 28.6533 5.06431C27.44 3.7602 25.3867 2.59582 23.7067 1.99034C22.7733 2.22322 23.1 3.52733 22.0267 3.7602C21.1867 5.25062 19.9267 4.31911 20.4867 5.39034C20.6733 6.88075 19.5067 7.06705 19.4133 8.32459C19.4133 10.2808 19.32 11.6314 19.0867 13.5876C18.76 15.3575 19.1333 17.3136 18.8533 19.1301C18.2467 19.7821 18.7133 20.1547 19.18 20.6671C18.4333 21.5986 19.46 22.6698 18.5267 23.4616C20.0667 24.7657 19.4133 24.7191 18.8067 26.489C18.0133 27.8862 19.6933 28.9109 19.88 30.1684C19.88 30.541 18.9 31.4725 19.88 31.6123C24.22 32.3575 24.8267 28.0725 27.3467 26.5356C28.98 24.3465 27.5333 25.1849 28 22.9027C27.5333 21.8314 25.0133 18.3383 23.7533 18.8972C23.1 18.3849 21.7933 17.6862 22.8667 16.8013C22.3067 15.7301 23.1467 13.6808 24.4067 13.6342C24.9667 12.7027 25.5267 12.8424 26.0867 13.2616C27.86 11.8177 30.4733 9.67527 29.3067 7.11363L29.1667 7.1602ZM23.1 22.8095C24.8267 22.6698 24.6867 24.4862 25.6667 24.9986C26.0867 25.8369 25.1533 27.0013 25.2467 27.7931C24.78 27.8397 24.1733 28.0725 23.7067 28.1657C22.26 27.1876 20.44 28.026 21.0467 25.4643C22.0733 24.5328 21.3267 21.9246 23.1 22.8095ZM26.46 9.48897C26.0867 10.8862 24.08 11.3986 23.0067 12.0506C22.2133 10.7931 23.0533 8.37116 23.5667 7.11363C26.1333 5.29719 26.2733 7.48623 26.46 9.48897ZM109.06 21.2725C109.247 19.2232 106.913 17.9657 105.607 19.4095C104.067 19.5492 103.367 21.5054 102.013 21.9246C100.987 22.9027 103.507 24.1602 102.013 25.5575C102.06 26.6753 102.76 28.678 100.987 27.9794C100.707 28.1191 100.52 29.004 99.82 28.8177C99.2133 27.9794 98.1867 27.5602 97.86 26.7219C99.2133 26.2095 96.9267 24.5328 98.1867 22.0177C98.5133 21.0397 97.2067 20.5273 98.0467 19.6424C98.14 19.1301 98.28 16.5218 97.9067 16.1958L98.4667 16.0095C98.3267 15.1712 98.1867 14.2862 97.7667 13.4945C98.56 12.1903 98.6067 13.0287 97.8133 11.4451C99.0267 10.8862 99.7733 8.37116 101.453 9.25609C99.54 10.5136 102.013 10.1876 102.247 12.1438C102.06 13.9602 101.547 15.5438 102.433 17.3602C102.9 18.478 101.78 17.5465 101.827 18.2917C103.693 18.7575 103.833 16.3355 105.467 15.7766C107.38 15.8232 107.473 13.4479 108.78 12.5164C108.593 11.8643 107.94 10.9794 108.733 10.0945C109.387 8.97664 110.133 8.60404 111.393 8.46431C111.487 8.93007 111.253 8.74377 111.067 8.93007C110.88 9.67527 111.113 10.2808 110.88 11.026C111.487 11.2588 111.3 11.5849 111.207 12.1438C111.58 13.1218 111.44 14.426 111.113 15.404C111.58 16.8945 113.26 18.4314 111.767 19.8287C112.093 20.5739 112.513 20.8534 111.813 21.5986C112.42 22.8095 111.02 23.5082 111.813 24.8588C112.233 25.6972 109.107 26.8616 109.107 25.604C109.107 24.626 109.2 23.5082 109.293 22.6698C109.433 22.5766 109.807 22.6698 109.527 22.3438C109.247 22.0177 108.92 21.9712 108.92 21.3657L109.06 21.2725ZM16.4733 12.6095C16.94 13.4479 16.3333 14.752 15.68 15.404C15.96 16.8945 14.6533 18.2917 15.3067 19.8753C15.68 21.4123 14.6067 23.089 15.7267 24.2999C14.7467 25.3246 15.2133 26.7219 14.56 27.8397C14.28 28.1657 11.8533 31.3328 11.8067 29.6095C13.3 26.7684 11.2467 29.1903 12.32 25.6506C12.88 24.8123 11.9 23.415 11.9933 22.4835C12.8333 21.226 11.06 20.8999 10.22 21.5986C8.30667 23.089 4.57334 23.7876 4.20001 26.6287C3.40667 28.2588 1.54001 31.0999 0.0933395 28.678C0.513339 27.9794 0.326673 26.3492 0.186673 25.5109C-0.18666 24.9054 0.0933396 24.7191 0.560006 24.3931C-0.513327 22.9027 1.40001 21.0862 0.280006 19.5958C1.40001 18.9438 0.420006 18.4314 0.280006 17.3136C1.35334 16.1492 0.700006 14.0999 0.280006 12.5629C0.980006 11.9109 0.793339 10.9328 1.40001 10.1876C2.56667 8.97664 3.87334 7.76568 4.34001 10.1876C4.76001 10.6999 5.46001 11.3986 4.52667 11.678C3.96667 12.2835 4.38667 12.7958 3.78001 13.3547C3.73334 13.6808 4.48001 14.0999 4.10667 14.5191C3.31334 14.752 3.54667 15.1246 3.87334 15.7301C3.50001 17.3136 4.06001 19.1766 3.40667 20.6671C3.87334 22.7164 1.21334 25.8369 4.43334 22.9492C6.16001 22.204 7.23334 19.6424 8.96001 18.8506C10.3133 19.0835 12.0867 18.3383 12.0867 16.8013C12.5533 16.3355 12.6 15.8698 12.3667 15.3109C12.74 13.4945 13.5333 12.004 14.56 10.5602C15.4467 10.9328 17.08 11.2588 16.5667 12.5629L16.4733 12.6095ZM42.28 24.626C42.3733 25.4643 41.9533 26.7219 41.9533 27.5136C41.16 27.5602 40.6933 28.8643 39.8533 28.2588C38.8267 26.6753 37.38 25.3712 36.1667 23.8808C35.9333 23.0424 36.6333 21.5054 35.14 21.6451C33.1333 21.878 32.6667 24.1602 32.5733 25.8835C34.02 26.5355 37.8467 26.1164 35.6067 29.0506C33.6 28.3986 32.76 27.9328 30.8 28.9109C30.0067 27.5136 31.8267 27.7931 29.7267 25.3712C30.38 24.0671 30.1467 22.9492 31.36 22.204C31.64 20.8999 31.92 19.8287 32.5267 18.4314C33.18 18.0123 33.3667 17.5931 32.9467 16.8945C33.5533 16.3821 34.0667 15.9164 34.02 15.0314C33.32 14.3794 34.4867 13.3082 33.18 13.1218C33.1333 12.7958 33.18 12.5164 33.18 12.1903C32.5267 10.6068 31.92 8.88349 32.8533 6.6013C34.72 6.32185 35.84 5.29719 36.8667 7.57938C36.96 8.55746 36.26 8.74377 37.1933 9.30267C37.38 9.95473 37.38 10.3739 38.1267 10.4671C38.6867 11.1657 37.2867 12.0972 37.9867 12.9355C39.2 13.5876 38.4533 15.078 39.1067 16.1958C39.8533 17.1273 39.2933 18.478 39.34 19.5027C40.46 20.5273 39.9467 22.3438 41.3467 23.1355C41.2067 23.9273 41.86 24.2068 42.28 24.626ZM70.4667 20.8999C69.44 20.8068 70.2333 19.4095 69.44 19.4095C68.9733 19.6424 68.6 19.8753 68.2267 19.4095C63.98 17.7328 66.8733 17.826 64.9133 15.5903C64.7267 14.7986 65.38 14.9383 65.8 14.5191C66.1267 13.1218 66.7333 11.4451 65.7533 10.1876C65.8933 9.58212 66.22 8.93007 65.5667 8.37116C65.9867 7.71911 65.7067 7.06705 65.4733 6.415C65.5667 5.62322 65.1467 5.29719 64.54 4.87801C64.26 4.41226 64.3067 3.66705 63.6533 3.80678C63.1867 3.66705 63 3.015 62.6733 2.68897C61.8333 2.17664 59.9667 2.08349 59.6867 3.10815C58.7533 4.36568 57.7733 5.20404 59.08 6.55472C59.1733 7.11363 58.6133 7.20678 58.6133 7.57938C58.8933 8.37116 58.7067 9.25609 59.8267 9.30267C60.48 9.39582 61.6933 9.16294 61.5533 8.41774C62.6267 8.51089 63.6067 9.39582 63.7933 10.5602C62.9067 12.6561 63.7933 15.1246 62.72 17.2205C62.86 18.3383 63.14 19.3164 62.5333 20.341C62.2533 21.226 63.4667 22.0177 62.2533 22.3438C61.74 23.415 63.0467 22.8561 62.2533 24.5794C63.7467 25.4643 62.4867 27.1876 62.9067 28.4451C62.44 30.4945 65.8467 28.4451 66.9667 28.6314C67.9933 29.6095 67.9467 28.1657 69.3467 28.5383C70.0467 28.3054 69.7667 27.6534 70.0933 27.1876C70.7467 26.6287 71.26 25.7903 70.56 24.9986C71.82 24.7657 70.42 21.878 70.56 20.8999H70.4667ZM68.9733 24.8588C69.4867 26.3027 67.34 26.0698 66.5467 26.3027C66.1733 25.8369 64.4467 25.9766 65.1933 25.5109C64.8667 23.5547 65.1 25.2314 65.8933 23.3684C67.1067 22.9492 69.7667 22.8095 68.9267 24.8588H68.9733ZM138.413 25.8835C137.807 28.678 135.1 27.7931 133.187 28.678C132.72 28.3054 132.58 28.0725 131.927 28.352C130.853 27.2808 129.733 25.7438 129.64 24.2068C129.407 22.6698 129.173 20.7136 130.107 19.4095C129.593 19.0835 129.033 15.4972 129.36 15.4506C129.36 14.7054 128.147 13.541 129.127 12.889C129.547 11.3986 129.36 10.141 129.08 8.60404C130.06 6.9739 131.553 3.94651 133.513 6.415C134.213 6.18212 134.447 4.78486 134.96 6.32185C136.22 7.39308 135.94 5.25062 137.62 7.76568C137.433 10.141 136.92 9.02322 135.333 10.5136C134.12 12.1903 132.953 10.7465 132.767 13.7273C132.02 14.8917 133.933 15.5903 134.913 15.4506C135.52 15.0314 135.94 15.0314 136.127 15.8698C136.267 16.1027 136.733 16.289 136.547 16.615C136.173 16.8013 135.94 17.1739 135.847 17.5931C135.287 19.1301 133.327 18.9903 133.653 20.8068C133.093 21.5986 132.627 22.0643 133.327 22.9492C132.86 25.6506 135.707 24.2534 136.873 23.741C137.013 24.6725 138.087 24.9986 138.413 25.9301V25.8835Z" fill="white"/>
</g>
<defs>
<clipPath id="clip0_4505_117">
<rect width="168" height="34" fill="white" transform="translate(0 0.5)"/>
</clipPath>
</defs>
</svg>
