<svg width="139" height="69" viewBox="0 0 139 69" fill="none" xmlns="http://www.w3.org/2000/svg">
<g clip-path="url(#clip0_4505_133)">
<path d="M98.5026 53.5162C99.3405 53.5162 99.8362 52.8814 99.8362 51.8889C99.8362 50.86 99.3041 50.2616 98.5202 50.2616C98.072 50.2616 97.7607 50.4603 97.5277 50.7761H97.5167V49.1499H97.0309V53.4257H97.5167V53.0194H97.5277C97.7794 53.3661 98.0841 53.5162 98.5026 53.5162ZM98.4672 53.1088C97.8093 53.1088 97.4858 52.5889 97.4858 51.8944C97.4858 51.2254 97.7971 50.6745 98.4728 50.6745C99.059 50.6745 99.3405 51.2011 99.3405 51.8944C99.3405 52.5944 99.059 53.1088 98.4672 53.1088ZM100.656 54.4491C101.033 54.4491 101.272 54.3166 101.523 53.6763L102.846 50.3334H102.331L101.625 52.2599C101.53 52.5171 101.422 52.8638 101.422 52.8638H101.411C101.411 52.8638 101.296 52.5171 101.201 52.2599L100.471 50.3334H99.9444L101.152 53.3363L101.033 53.641C100.914 53.9402 100.776 54.0185 100.573 54.0185C100.459 54.0243 100.346 54.0015 100.244 53.9523H100.219V54.3829C100.352 54.437 100.471 54.4491 100.656 54.4491ZM104.085 53.4257H104.899V49.1499H104.085V53.4257ZM106.889 53.5162C107.839 53.5162 108.492 52.8097 108.492 51.8944C108.492 50.9792 107.84 50.2738 106.889 50.2738C105.938 50.2738 105.286 50.9803 105.286 51.8944C105.286 52.8108 105.937 53.5162 106.889 53.5162ZM106.889 52.8936C106.386 52.8936 106.111 52.4928 106.111 51.8944C106.111 51.2972 106.386 50.8898 106.889 50.8898C107.385 50.8898 107.666 51.2972 107.666 51.8944C107.666 52.4928 107.385 52.8936 106.889 52.8936ZM110.222 54.4723C110.676 54.4723 111.07 54.3652 111.328 54.1256C111.555 53.9159 111.693 53.6233 111.693 53.1927V50.3577H110.909V50.6812H110.897C110.712 50.4239 110.431 50.2738 110.047 50.2738C109.271 50.2738 108.72 50.86 108.72 51.7752C108.72 52.7026 109.39 53.2402 110.072 53.2402C110.461 53.2402 110.694 53.0857 110.873 52.8814H110.892V53.217C110.892 53.6355 110.671 53.8574 110.209 53.8574C109.833 53.8574 109.66 53.7072 109.593 53.5151H108.786C108.869 54.1135 109.384 54.4723 110.222 54.4723ZM110.21 52.5889C109.791 52.5889 109.515 52.2842 109.515 51.7631C109.515 51.2486 109.791 50.9262 110.204 50.9262C110.694 50.9262 110.934 51.3082 110.934 51.7575C110.934 52.2124 110.724 52.5889 110.209 52.5889H110.21ZM113.67 53.5162C114.621 53.5162 115.273 52.8097 115.273 51.8944C115.273 50.9792 114.621 50.2738 113.67 50.2738C112.719 50.2738 112.067 50.9803 112.067 51.8944C112.067 52.8108 112.719 53.5162 113.67 53.5162ZM113.67 52.8936C113.168 52.8936 112.892 52.4928 112.892 51.8944C112.892 51.2972 113.168 50.8898 113.67 50.8898C114.166 50.8898 114.448 51.2972 114.448 51.8944C114.448 52.4928 114.166 52.8936 113.67 52.8936ZM115.651 53.4257H116.465V50.3577H115.651V53.4257ZM115.651 49.8796H116.465V49.1499H115.651V49.8796ZM116.989 54.4303H117.803V53.0801H117.814C117.988 53.344 118.269 53.5173 118.699 53.5173C119.488 53.5173 120.027 52.888 120.027 51.8955C120.027 50.9384 119.507 50.2749 118.694 50.2749C118.516 50.272 118.341 50.3131 118.183 50.3946C118.026 50.4761 117.891 50.5954 117.791 50.7419H117.773V50.3588H116.989V54.4325V54.4303ZM118.526 52.8406C118.041 52.8406 117.784 52.4751 117.784 51.9187C117.784 51.3689 117.988 50.9318 118.496 50.9318C118.998 50.9318 119.201 51.338 119.201 51.9187C119.201 52.4994 118.939 52.8406 118.526 52.8406ZM121.65 53.5162C122.415 53.5162 122.942 53.1453 122.942 52.5292C122.942 51.8116 122.373 51.6681 121.859 51.5599C121.423 51.4705 121.016 51.4462 121.016 51.1835C121.016 50.9627 121.225 50.8412 121.542 50.8412C121.89 50.8412 122.098 50.9627 122.135 51.2906H122.87C122.81 50.6745 122.362 50.2749 121.554 50.2749C120.854 50.2749 120.304 50.5906 120.304 51.2552C120.304 51.9243 120.842 52.0744 121.393 52.1826C121.811 52.2654 122.2 52.2952 122.2 52.5889C122.2 52.8041 121.997 52.9421 121.638 52.9421C121.274 52.9421 121.022 52.7865 120.968 52.4332H120.215C120.262 53.0846 120.759 53.5162 121.65 53.5162ZM126.031 53.4257V50.3577H125.217V52.1285C125.217 52.5348 124.983 52.8218 124.601 52.8218C124.254 52.8218 124.092 52.6242 124.092 52.2654V50.3577H123.285V52.4034C123.285 53.0735 123.668 53.5096 124.349 53.5096C124.78 53.5096 125.02 53.3484 125.229 53.068H125.247V53.4257H126.031ZM126.556 53.4257H127.37V51.6449C127.37 51.2376 127.591 50.9748 127.92 50.9748C128.219 50.9748 128.392 51.1548 128.392 51.5014V53.4268H129.206V51.6449C129.206 51.2376 129.416 50.9748 129.757 50.9748C130.056 50.9748 130.229 51.1548 130.229 51.5014V53.4268H131.043V51.3634C131.043 50.6933 130.678 50.2749 130.032 50.2749C129.643 50.2749 129.32 50.478 129.111 50.8136H129.099C129.025 50.6507 128.905 50.5128 128.754 50.4171C128.603 50.3214 128.428 50.2719 128.249 50.2749C128.069 50.2704 127.892 50.3141 127.735 50.4015C127.579 50.4889 127.448 50.6167 127.358 50.7717H127.34V50.3588H126.556V53.4279V53.4257Z" fill="#E7EBE9"/>
<path d="M131.203 14.7926C131.203 13.4865 132.262 12.4267 133.568 12.4267H135.145C135.773 12.4267 136.375 12.676 136.818 13.1196C137.262 13.5633 137.511 14.1651 137.511 14.7926C137.511 15.42 137.262 16.0218 136.818 16.4655C136.375 16.9092 135.773 17.1584 135.145 17.1584H133.568C133.257 17.1584 132.95 17.0972 132.663 16.9783C132.376 16.8594 132.115 16.6851 131.895 16.4654C131.676 16.2457 131.502 15.9849 131.383 15.6979C131.264 15.4108 131.203 15.1032 131.203 14.7926ZM64.973 28.1962C64.973 36.9046 57.914 43.9647 49.2046 43.9647C40.4962 43.9647 33.4361 36.9046 33.4361 28.1962C33.4361 19.4857 40.4962 12.4278 49.2046 12.4278C57.914 12.4278 64.973 19.4857 64.973 28.1962ZM30.3604 28.1178C31.2325 28.1178 31.9457 28.8244 31.8585 29.6922C31.5605 32.6617 30.4258 35.4857 28.5863 37.836C26.7469 40.1862 24.2783 41.9662 21.4673 42.969C18.6564 43.9718 15.6185 44.1563 12.7069 43.5011C9.79521 42.8458 7.12928 41.3777 5.01894 39.2674C2.90859 37.157 1.44047 34.4911 0.785216 31.5794C0.129959 28.6678 0.314467 25.6299 1.3173 22.819C2.32013 20.008 4.1001 17.5394 6.45034 15.7C8.80058 13.8605 11.6246 12.7259 14.5942 12.4278C15.4608 12.3395 16.1685 13.0549 16.1685 13.9248V26.5402C16.1685 27.4124 16.875 28.1178 17.7461 28.1178H30.3604ZM87.0497 47.1188C88.3043 47.1188 89.5076 47.6172 90.3947 48.5044C91.2819 49.3915 91.7803 50.5948 91.7803 51.8494C91.7803 53.1041 91.2819 54.3073 90.3947 55.1945C89.5076 56.0817 88.3043 56.5801 87.0497 56.5801H79.166C77.9114 56.5801 76.7081 56.0817 75.8209 55.1945C74.9338 54.3073 74.4354 53.1041 74.4354 51.8494C74.4354 50.5948 74.9338 49.3915 75.8209 48.5044C76.7081 47.6172 77.9114 47.1188 79.166 47.1188H87.0497ZM82.319 43.9647C91.0285 43.9647 98.0886 36.9046 98.0886 28.1962C98.0923 25.5212 97.4125 22.8895 96.1135 20.551L98.7189 17.9456C99.0191 17.6453 99.2571 17.2889 99.4194 16.8967C99.5818 16.5044 99.6653 16.0841 99.6652 15.6595C99.6651 15.235 99.5814 14.8147 99.4189 14.4225C99.2563 14.0303 99.0181 13.674 98.7178 13.3739C98.4176 13.0738 98.0612 12.8358 97.6689 12.6734C97.2767 12.5111 96.8563 12.4276 96.4318 12.4277C96.0073 12.4278 95.5869 12.5115 95.1948 12.674C94.8026 12.8366 94.4463 13.0748 94.1462 13.375L91.8719 15.6493C89.1283 13.5538 85.7703 12.4211 82.3179 12.4267C73.6107 12.4278 66.5517 19.4857 66.5517 28.1962C66.5517 36.9046 73.6107 43.9647 82.319 43.9647ZM131.203 28.1962C131.203 36.9046 124.143 43.9647 115.434 43.9647C106.725 43.9647 99.6651 36.9046 99.6651 28.1962C99.6651 19.4857 106.725 12.4278 115.434 12.4278C124.143 12.4278 131.203 19.4868 131.203 28.1962Z" fill="#E7EBE9"/>
</g>
<defs>
<clipPath id="clip0_4505_133">
<rect width="138" height="69" fill="white" transform="translate(0.400024)"/>
</clipPath>
</defs>
</svg>
