<svg width="93" height="47" viewBox="0 0 93 47" fill="none" xmlns="http://www.w3.org/2000/svg">
<path d="M42.7763 36.8517H45.1722V27.8144H42.7763V36.8517ZM42.7763 26.4051H45.1722V24.2559H42.7763V26.4051Z" fill="#E7EBE9"/>
<path d="M46.7159 39.8109H49.1118V35.8296H49.1471C49.6579 36.6047 50.4859 37.1156 51.7543 37.1156C54.0797 37.1156 55.6652 35.2659 55.6652 32.3415C55.6652 29.5228 54.1325 27.5674 51.7367 27.5674C50.5035 27.5674 49.6579 28.1487 49.0766 28.9414H49.0237V27.814H46.7159V39.8109ZM51.2435 35.1249C49.8165 35.1249 49.0589 34.0503 49.0589 32.4119C49.0589 30.7912 49.6579 29.5052 51.1553 29.5052C52.6351 29.5052 53.2341 30.7031 53.2341 32.4119C53.2341 34.1208 52.459 35.1249 51.2435 35.1249Z" fill="#E7EBE9"/>
<path d="M60.4444 37.1156C62.6993 37.1156 64.2495 36.0233 64.2495 34.2088C64.2495 32.0948 62.576 31.6721 61.061 31.355C59.7749 31.0907 58.577 31.0202 58.577 30.2451C58.577 29.5933 59.1936 29.2409 60.1273 29.2409C61.1491 29.2409 61.7656 29.5933 61.8713 30.5622H64.0382C63.862 28.7477 62.5408 27.5674 60.1626 27.5674C58.1014 27.5674 56.4806 28.5011 56.4806 30.4564C56.4806 32.4295 58.0662 32.87 59.6869 33.1871C60.92 33.4337 62.0651 33.5218 62.0651 34.385C62.0651 35.0192 61.4662 35.4244 60.4091 35.4244C59.3346 35.4244 58.5946 34.9664 58.4361 33.9269H56.2164C56.3573 35.8472 57.8195 37.1156 60.4444 37.1156Z" fill="#E7EBE9"/>
<path d="M73.3459 36.8513V27.814H70.95V33.0284C70.95 34.2264 70.263 35.072 69.1355 35.072C68.1138 35.072 67.6381 34.4906 67.6381 33.4336V27.814H65.2599V33.8388C65.2599 35.8118 66.3874 37.0979 68.3957 37.0979C69.6641 37.0979 70.3687 36.6222 70.9854 35.7942H71.0382V36.8513H73.3459Z" fill="#E7EBE9"/>
<path d="M74.8956 36.8513H77.2916V31.6015C77.2916 30.4036 77.9434 29.6285 78.9122 29.6285C79.7931 29.6285 80.304 30.157 80.304 31.1788V36.8513H82.6998V31.6015C82.6998 30.4036 83.3164 29.6285 84.3205 29.6285C85.2014 29.6285 85.7123 30.157 85.7123 31.1788V36.8513H88.1081V30.7736C88.1081 28.8005 87.0335 27.5674 85.1309 27.5674C83.9858 27.5674 83.0346 28.1663 82.418 29.1528H82.3827C81.9423 28.2016 81.0262 27.5674 79.8811 27.5674C78.6304 27.5674 77.7495 28.2016 77.2562 29.0296H77.2034V27.814H74.8956V36.8513Z" fill="#E7EBE9"/>
<path d="M42.8115 21.3727H45.2074V8.77686H42.8115V21.3727Z" fill="#E7EBE9"/>
<path d="M51.0656 21.6371C53.8667 21.6371 55.7869 19.5583 55.7869 16.863C55.7869 14.1676 53.8667 12.0889 51.0656 12.0889C48.2646 12.0889 46.3443 14.1676 46.3443 16.863C46.3443 19.5583 48.2646 21.6371 51.0656 21.6371ZM51.0656 19.8049C49.5858 19.8049 48.7755 18.6246 48.7755 16.863C48.7755 15.1013 49.5858 13.9034 51.0656 13.9034C52.5278 13.9034 53.3558 15.1013 53.3558 16.863C53.3558 18.6246 52.5278 19.8049 51.0656 19.8049Z" fill="#E7EBE9"/>
<path d="M60.8819 24.4558C62.2208 24.4558 63.3835 24.1387 64.141 23.4339C64.8104 22.8174 65.2156 21.9542 65.2156 20.6858V12.3355H62.9078V13.2868H62.8726C62.3265 12.5293 61.4985 12.0889 60.371 12.0889C58.0809 12.0889 56.4601 13.8153 56.4601 16.5106C56.4601 19.2412 58.4332 20.8267 60.4415 20.8267C61.5866 20.8267 62.2737 20.3687 62.8022 19.7697H62.855V20.7562C62.855 21.9894 62.2032 22.6412 60.8467 22.6412C59.7368 22.6412 59.226 22.2008 59.0322 21.6371H56.6539C56.9006 23.3987 58.4156 24.4558 60.8819 24.4558ZM60.8467 18.9065C59.6135 18.9065 58.8031 18.0081 58.8031 16.4754C58.8031 14.9604 59.6135 14.0091 60.8291 14.0091C62.2737 14.0091 62.9783 15.1365 62.9783 16.4578C62.9783 17.7966 62.3617 18.9065 60.8467 18.9065Z" fill="#E7EBE9"/>
<path d="M71.0391 21.6371C73.8401 21.6371 75.7604 19.5583 75.7604 16.863C75.7604 14.1676 73.8401 12.0889 71.0391 12.0889C68.2381 12.0889 66.3179 14.1676 66.3179 16.863C66.3179 19.5583 68.2381 21.6371 71.0391 21.6371ZM71.0391 19.8049C69.5593 19.8049 68.749 18.6246 68.749 16.863C68.749 15.1013 69.5593 13.9034 71.0391 13.9034C72.5013 13.9034 73.3293 15.1013 73.3293 16.863C73.3293 18.6246 72.5013 19.8049 71.0391 19.8049Z" fill="#E7EBE9"/>
<path d="M77.8607 17.92H88.2191V15.8589H77.8607V17.92Z" fill="#E7EBE9"/>
<path d="M88.9787 26.279C88.9787 25.8736 89.3073 25.5449 89.713 25.5449H91.1806C91.5862 25.5449 91.9148 25.8736 91.9148 26.279C91.9148 26.6843 91.5862 27.013 91.1806 27.013H89.713C89.3073 27.013 88.9787 26.6843 88.9787 26.279Z" fill="#E7EBE9"/>
<path fill-rule="evenodd" clip-rule="evenodd" d="M18.5808 5.97607C28.259 5.97607 36.1047 13.8217 36.1047 23.4999C36.1047 33.178 28.259 41.0237 18.5808 41.0237C8.90271 41.0237 1.05704 33.178 1.05704 23.4999C1.05704 13.8217 8.90271 5.97607 18.5808 5.97607ZM17.9474 7.28737C15.9483 7.56872 14.0447 9.17512 12.567 11.8618C12.1384 12.6411 11.7516 13.5021 11.4146 14.4317C13.4238 13.9268 15.6311 13.6291 17.9474 13.583V7.28737ZM9.93354 14.8526C10.3526 13.5372 10.8654 12.3271 11.4571 11.2513C12.1896 9.91945 13.0589 8.76933 14.0384 7.88597C8.71213 9.43285 4.51381 13.6312 2.96693 18.9574C3.85028 17.978 5.00042 17.1086 6.33228 16.3761C7.40802 15.7844 8.61819 15.2717 9.93354 14.8526ZM9.51262 16.3336C9.00773 18.3429 8.71006 20.5501 8.66401 22.8665H2.36833C2.64968 20.8673 4.25608 18.9637 6.94276 17.4861C7.72207 17.0574 8.58304 16.6707 9.51262 16.3336ZM9.93109 22.8665C9.9834 20.3386 10.3473 17.9653 10.9494 15.8684C13.0463 15.2663 15.4196 14.9024 17.9474 14.85V17.5863C17.0044 20.0006 15.081 21.9238 12.6666 22.8665H9.93109ZM8.66401 24.1333H2.36833C2.64968 26.1325 4.25608 28.036 6.94276 29.5137C7.72207 29.9423 8.58304 30.3291 9.51262 30.6662C9.00773 28.6569 8.71006 26.4497 8.66401 24.1333ZM10.9494 31.1313C10.3473 29.0344 9.9834 26.6612 9.93109 24.1333H12.6666C15.081 25.076 17.0045 26.9992 17.9474 29.4135V32.1497C15.4196 32.0974 13.0463 31.7334 10.9494 31.1313ZM9.93354 32.1472C8.61819 31.7281 7.40802 31.2154 6.33228 30.6237C5.00042 29.8912 3.85028 29.0218 2.96693 28.0423C4.51381 33.3686 8.71213 37.5669 14.0384 39.1138C13.0589 38.2304 12.1896 37.0803 11.4571 35.7484C10.8654 34.6727 10.3526 33.4625 9.93354 32.1472ZM17.9474 39.7124C15.9483 39.431 14.0447 37.8246 12.567 35.138C12.1384 34.3587 11.7516 33.4977 11.4146 32.5681C13.4238 33.073 15.6311 33.3707 17.9474 33.4167V39.7124ZM23.1233 39.1138C24.1028 38.2304 24.9721 37.0803 25.7047 35.7484C26.2963 34.6727 26.8091 33.4625 27.2281 32.1472C28.5435 31.7281 29.7537 31.2154 30.8295 30.6237C32.1613 29.8912 33.3114 29.0218 34.1947 28.0423C32.6479 33.3686 28.4496 37.5669 23.1233 39.1138ZM25.7471 32.5681C25.41 33.4977 25.0233 34.3587 24.5947 35.138C23.1171 37.8246 21.2134 39.431 19.2142 39.7124V33.4167C21.5306 33.3707 23.7378 33.073 25.7471 32.5681ZM27.6491 30.6662C28.5786 30.3291 29.4396 29.9423 30.2189 29.5137C32.9056 28.036 34.512 26.1325 34.7933 24.1333H28.4977C28.4517 26.4497 28.1539 28.6569 27.6491 30.6662ZM27.2307 24.1333C27.1784 26.6612 26.8144 29.0344 26.2123 31.1313C24.1154 31.7334 21.7421 32.0974 19.2142 32.1497V29.4155C20.1569 27.0004 22.0808 25.0762 24.4958 24.1333H27.2307ZM28.4977 22.8665H34.7933C34.512 20.8673 32.9056 18.9637 30.2189 17.4861C29.4396 17.0574 28.5786 16.6707 27.6491 16.3336C28.1539 18.3429 28.4517 20.5501 28.4977 22.8665ZM26.2123 15.8684C26.8144 17.9653 27.1784 20.3386 27.2307 22.8665H24.4958C22.0808 21.9235 20.1569 19.9994 19.2142 17.5843V14.85C21.7421 14.9024 24.1154 15.2663 26.2123 15.8684ZM27.2281 14.8526C28.5435 15.2717 29.7537 15.7844 30.8295 16.3761C32.1613 17.1086 33.3114 17.978 34.1947 18.9574C32.6479 13.6312 28.4496 9.43285 23.1233 7.88597C24.1028 8.76933 24.9721 9.91945 25.7047 11.2513C26.2963 12.3271 26.8091 13.5372 27.2281 14.8526ZM19.2142 7.28737C21.2134 7.56872 23.1171 9.17512 24.5947 11.8618C25.0233 12.6411 25.41 13.5021 25.7471 14.4317C23.7378 13.9268 21.5306 13.6291 19.2142 13.583V7.28737Z" fill="#E7EBE9"/>
</svg>
