<svg width="177" height="41" viewBox="0 0 177 41" fill="none" xmlns="http://www.w3.org/2000/svg">
<g clip-path="url(#clip0_4505_136)">
<path fill-rule="evenodd" clip-rule="evenodd" d="M15.2 28.5C13.8739 28.5 12.6022 27.9732 11.6645 27.0355C10.7268 26.0979 10.2 24.8261 10.2 23.5V0.5H0.200012V23.5C0.200012 31.784 6.91601 38.5 15.2 38.5H26.2V28.5H15.2ZM45.2 10.5C44.0181 10.5 42.8478 10.7328 41.7559 11.1851C40.6639 11.6374 39.6718 12.3003 38.8361 13.136C38.0003 13.9718 37.3374 14.9639 36.8851 16.0558C36.4328 17.1478 36.2 18.3181 36.2 19.5C36.2 20.6819 36.4328 21.8522 36.8851 22.9442C37.3374 24.0361 38.0003 25.0282 38.8361 25.864C39.6718 26.6997 40.6639 27.3626 41.7559 27.8149C42.8478 28.2672 44.0181 28.5 45.2 28.5C47.587 28.5 49.8761 27.5518 51.564 25.864C53.2518 24.1761 54.2 21.8869 54.2 19.5C54.2 17.1131 53.2518 14.8239 51.564 13.136C49.8761 11.4482 47.587 10.5 45.2 10.5ZM26.2 19.5C26.2 9.007 34.707 0.5 45.2 0.5C55.693 0.5 64.2 9.007 64.2 19.5C64.2 29.993 55.693 38.5 45.2 38.5C34.707 38.5 26.2 29.993 26.2 19.5ZM153.2 10.5C150.813 10.5 148.524 11.4482 146.836 13.136C145.148 14.8239 144.2 17.1131 144.2 19.5C144.2 21.8869 145.148 24.1761 146.836 25.864C148.524 27.5518 150.813 28.5 153.2 28.5C155.587 28.5 157.876 27.5518 159.564 25.864C161.252 24.1761 162.2 21.8869 162.2 19.5C162.2 17.1131 161.252 14.8239 159.564 13.136C157.876 11.4482 155.587 10.5 153.2 10.5ZM134.2 19.5C134.2 9.007 142.707 0.5 153.2 0.5C163.693 0.5 172.2 9.007 172.2 19.5C172.2 29.993 163.693 38.5 153.2 38.5C142.707 38.5 134.2 29.993 134.2 19.5ZM85.2 0.5C74.707 0.5 66.2 9.007 66.2 19.5C66.2 29.993 74.707 38.5 85.2 38.5H113.2C115.169 38.5 117.068 38.2 118.854 37.644L124.2 40.5L129.968 29.696C131.433 26.9457 132.2 23.8773 132.2 20.761V19.5C132.2 9.007 123.693 0.5 113.2 0.5H85.2ZM122.2 19.5C122.2 17.1131 121.252 14.8239 119.564 13.136C117.876 11.4482 115.587 10.5 113.2 10.5H85.2C84.0181 10.5 82.8478 10.7328 81.7559 11.1851C80.6639 11.6374 79.6718 12.3003 78.8361 13.136C78.0003 13.9718 77.3374 14.9639 76.8851 16.0558C76.4328 17.1478 76.2 18.3181 76.2 19.5C76.2 20.6819 76.4328 21.8522 76.8851 22.9442C77.3374 24.0361 78.0003 25.0282 78.8361 25.864C79.6718 26.6997 80.6639 27.3626 81.7559 27.8149C82.8478 28.2672 84.0181 28.5 85.2 28.5H113.2C115.575 28.5001 117.854 27.5615 119.539 25.8888C121.225 24.216 122.182 21.9448 122.2 19.57V19.5Z" fill="#E7EBE9"/>
<path d="M176.2 3C176.2 3.66304 175.937 4.29893 175.468 4.76777C174.999 5.23661 174.363 5.5 173.7 5.5C173.037 5.5 172.401 5.23661 171.932 4.76777C171.463 4.29893 171.2 3.66304 171.2 3C171.2 2.33696 171.463 1.70107 171.932 1.23223C172.401 0.763392 173.037 0.5 173.7 0.5C174.363 0.5 174.999 0.763392 175.468 1.23223C175.937 1.70107 176.2 2.33696 176.2 3Z" fill="#E7EBE9"/>
</g>
<defs>
<clipPath id="clip0_4505_136">
<rect width="176" height="40" fill="white" transform="translate(0.200012 0.5)"/>
</clipPath>
</defs>
</svg>
